<mxfile host="app.diagrams.net" modified="2024-07-13T12:48:08.187Z" agent="Mozilla/5.0 (Macintosh; Intel Mac OS X 10_15_7) AppleWebKit/537.36 (KHTML, like Gecko) Chrome/126.0.0.0 Safari/537.36" etag="Eh2B7fpOa6jjKdpB8Arx" version="24.6.4" type="device">
  <diagram name="Page-1" id="emuL79B4fGceoLheLs0t">
    <mxGraphModel dx="7620" dy="-1103" grid="1" gridSize="10" guides="1" tooltips="1" connect="1" arrows="1" fold="1" page="1" pageScale="1" pageWidth="850" pageHeight="1100" math="0" shadow="0">
      <root>
        <mxCell id="0" />
        <mxCell id="1" parent="0" />
        <mxCell id="wPWIn_zEP_00SwvqZCT9-9" value="&lt;b style=&quot;font-size: 34px;&quot;&gt;Backend Entity-Relationship Example 2&lt;/b&gt;" style="text;html=1;align=center;verticalAlign=middle;whiteSpace=wrap;rounded=0;strokeWidth=2;fontSize=34;labelBackgroundColor=default;imageVerticalAlign=bottom;" parent="1" vertex="1">
          <mxGeometry x="-1450" y="3560" width="703" height="60" as="geometry" />
        </mxCell>
        <mxCell id="wPWIn_zEP_00SwvqZCT9-10" value="user" style="swimlane;fontStyle=1;align=center;verticalAlign=top;childLayout=stackLayout;horizontal=1;startSize=26;horizontalStack=0;resizeParent=1;resizeParentMax=0;resizeLast=0;collapsible=1;marginBottom=0;whiteSpace=wrap;html=1;fillColor=#dae8fc;strokeColor=#6c8ebf;shadow=1;swimlaneFillColor=default;rounded=0;" parent="1" vertex="1">
          <mxGeometry x="-1255" y="4590" width="195" height="349" as="geometry" />
        </mxCell>
        <mxCell id="wPWIn_zEP_00SwvqZCT9-11" value="- id: Long/String" style="text;strokeColor=none;fillColor=none;align=left;verticalAlign=top;spacingLeft=4;spacingRight=4;overflow=hidden;rotatable=0;points=[[0,0.5],[1,0.5]];portConstraint=eastwest;whiteSpace=wrap;html=1;" parent="wPWIn_zEP_00SwvqZCT9-10" vertex="1">
          <mxGeometry y="26" width="195" height="26" as="geometry" />
        </mxCell>
        <mxCell id="wPWIn_zEP_00SwvqZCT9-12" value="- email: String" style="text;strokeColor=none;fillColor=#f5f5f5;align=left;verticalAlign=top;spacingLeft=4;spacingRight=4;overflow=hidden;rotatable=0;points=[[0,0.5],[1,0.5]];portConstraint=eastwest;fontColor=#000000;whiteSpace=wrap;html=1;textShadow=0;labelBorderColor=none;labelBackgroundColor=none;perimeterSpacing=0;rounded=0;" parent="wPWIn_zEP_00SwvqZCT9-10" vertex="1">
          <mxGeometry y="52" width="195" height="27" as="geometry" />
        </mxCell>
        <mxCell id="wPWIn_zEP_00SwvqZCT9-219" value="- user_stateless: UserStateless" style="text;strokeColor=none;fillColor=#f5f5f5;align=left;verticalAlign=top;spacingLeft=4;spacingRight=4;overflow=hidden;rotatable=0;points=[[0,0.5],[1,0.5]];portConstraint=eastwest;fontColor=#000000;whiteSpace=wrap;html=1;textShadow=0;labelBorderColor=none;labelBackgroundColor=none;perimeterSpacing=0;rounded=0;" parent="wPWIn_zEP_00SwvqZCT9-10" vertex="1">
          <mxGeometry y="79" width="195" height="27" as="geometry" />
        </mxCell>
        <mxCell id="wPWIn_zEP_00SwvqZCT9-231" value="- user_status: UserStatus" style="text;strokeColor=none;fillColor=#f5f5f5;align=left;verticalAlign=top;spacingLeft=4;spacingRight=4;overflow=hidden;rotatable=0;points=[[0,0.5],[1,0.5]];portConstraint=eastwest;fontColor=#000000;whiteSpace=wrap;html=1;textShadow=0;labelBorderColor=none;labelBackgroundColor=none;perimeterSpacing=0;rounded=0;" parent="wPWIn_zEP_00SwvqZCT9-10" vertex="1">
          <mxGeometry y="106" width="195" height="27" as="geometry" />
        </mxCell>
        <mxCell id="wPWIn_zEP_00SwvqZCT9-13" value="- password: String" style="text;strokeColor=none;fillColor=none;align=left;verticalAlign=top;spacingLeft=4;spacingRight=4;overflow=hidden;rotatable=0;points=[[0,0.5],[1,0.5]];portConstraint=eastwest;whiteSpace=wrap;html=1;" parent="wPWIn_zEP_00SwvqZCT9-10" vertex="1">
          <mxGeometry y="133" width="195" height="26" as="geometry" />
        </mxCell>
        <mxCell id="wPWIn_zEP_00SwvqZCT9-14" value="- username: String" style="text;strokeColor=none;fillColor=#f5f5f5;align=left;verticalAlign=top;spacingLeft=4;spacingRight=4;overflow=hidden;rotatable=0;points=[[0,0.5],[1,0.5]];portConstraint=eastwest;whiteSpace=wrap;html=1;fontColor=#000000;" parent="wPWIn_zEP_00SwvqZCT9-10" vertex="1">
          <mxGeometry y="159" width="195" height="26" as="geometry" />
        </mxCell>
        <mxCell id="wPWIn_zEP_00SwvqZCT9-15" value="- full_name String" style="text;strokeColor=none;fillColor=none;align=left;verticalAlign=top;spacingLeft=4;spacingRight=4;overflow=hidden;rotatable=0;points=[[0,0.5],[1,0.5]];portConstraint=eastwest;whiteSpace=wrap;html=1;" parent="wPWIn_zEP_00SwvqZCT9-10" vertex="1">
          <mxGeometry y="185" width="195" height="26" as="geometry" />
        </mxCell>
        <mxCell id="wPWIn_zEP_00SwvqZCT9-17" value="- phone_number: String" style="text;strokeColor=none;fillColor=none;align=left;verticalAlign=top;spacingLeft=4;spacingRight=4;overflow=hidden;rotatable=0;points=[[0,0.5],[1,0.5]];portConstraint=eastwest;whiteSpace=wrap;html=1;" parent="wPWIn_zEP_00SwvqZCT9-10" vertex="1">
          <mxGeometry y="211" width="195" height="26" as="geometry" />
        </mxCell>
        <mxCell id="wPWIn_zEP_00SwvqZCT9-18" value="- image_url: String" style="text;strokeColor=none;fillColor=#f5f5f5;align=left;verticalAlign=top;spacingLeft=4;spacingRight=4;overflow=hidden;rotatable=0;points=[[0,0.5],[1,0.5]];portConstraint=eastwest;whiteSpace=wrap;html=1;fontColor=#000000;" parent="wPWIn_zEP_00SwvqZCT9-10" vertex="1">
          <mxGeometry y="237" width="195" height="26" as="geometry" />
        </mxCell>
        <mxCell id="wPWIn_zEP_00SwvqZCT9-217" value="- created_at: String" style="text;strokeColor=none;fillColor=#f5f5f5;align=left;verticalAlign=top;spacingLeft=4;spacingRight=4;overflow=hidden;rotatable=0;points=[[0,0.5],[1,0.5]];portConstraint=eastwest;whiteSpace=wrap;html=1;fontColor=#000000;" parent="wPWIn_zEP_00SwvqZCT9-10" vertex="1">
          <mxGeometry y="263" width="195" height="26" as="geometry" />
        </mxCell>
        <mxCell id="wPWIn_zEP_00SwvqZCT9-218" value="- updated_at: String" style="text;strokeColor=none;fillColor=#f5f5f5;align=left;verticalAlign=top;spacingLeft=4;spacingRight=4;overflow=hidden;rotatable=0;points=[[0,0.5],[1,0.5]];portConstraint=eastwest;whiteSpace=wrap;html=1;fontColor=#000000;" parent="wPWIn_zEP_00SwvqZCT9-10" vertex="1">
          <mxGeometry y="289" width="195" height="26" as="geometry" />
        </mxCell>
        <mxCell id="wPWIn_zEP_00SwvqZCT9-23" value="" style="line;strokeWidth=1;fillColor=none;align=left;verticalAlign=middle;spacingTop=-1;spacingLeft=3;spacingRight=3;rotatable=0;labelPosition=right;points=[];portConstraint=eastwest;strokeColor=inherit;" parent="wPWIn_zEP_00SwvqZCT9-10" vertex="1">
          <mxGeometry y="315" width="195" height="8" as="geometry" />
        </mxCell>
        <mxCell id="wPWIn_zEP_00SwvqZCT9-24" value="+ method(type): type" style="text;strokeColor=none;fillColor=none;align=left;verticalAlign=top;spacingLeft=4;spacingRight=4;overflow=hidden;rotatable=0;points=[[0,0.5],[1,0.5]];portConstraint=eastwest;whiteSpace=wrap;html=1;" parent="wPWIn_zEP_00SwvqZCT9-10" vertex="1">
          <mxGeometry y="323" width="195" height="26" as="geometry" />
        </mxCell>
        <mxCell id="wPWIn_zEP_00SwvqZCT9-25" value="&lt;b&gt;verification&lt;/b&gt;" style="swimlane;fontStyle=0;childLayout=stackLayout;horizontal=1;startSize=30;horizontalStack=0;resizeParent=1;resizeParentMax=0;resizeLast=0;collapsible=1;marginBottom=0;whiteSpace=wrap;html=1;fillColor=#dae8fc;strokeColor=#6c8ebf;gradientColor=none;swimlaneFillColor=default;shadow=1;" parent="1" vertex="1">
          <mxGeometry x="-490" y="4225" width="160" height="214" as="geometry" />
        </mxCell>
        <mxCell id="wPWIn_zEP_00SwvqZCT9-31" value="- id: Long/String" style="text;strokeColor=none;fillColor=none;align=left;verticalAlign=middle;spacingLeft=4;spacingRight=4;overflow=hidden;points=[[0,0.5],[1,0.5]];portConstraint=eastwest;rotatable=0;whiteSpace=wrap;html=1;" parent="wPWIn_zEP_00SwvqZCT9-25" vertex="1">
          <mxGeometry y="30" width="160" height="30" as="geometry" />
        </mxCell>
        <mxCell id="wPWIn_zEP_00SwvqZCT9-32" value="- user_id: Long/String" style="text;strokeColor=none;fillColor=#f5f5f5;align=left;verticalAlign=middle;spacingLeft=4;spacingRight=4;overflow=hidden;points=[[0,0.5],[1,0.5]];portConstraint=eastwest;rotatable=0;whiteSpace=wrap;html=1;fontColor=#000000;" parent="wPWIn_zEP_00SwvqZCT9-25" vertex="1">
          <mxGeometry y="60" width="160" height="30" as="geometry" />
        </mxCell>
        <mxCell id="wPWIn_zEP_00SwvqZCT9-26" value="- verification_code: String" style="text;strokeColor=none;fillColor=none;align=left;verticalAlign=middle;spacingLeft=4;spacingRight=4;overflow=hidden;points=[[0,0.5],[1,0.5]];portConstraint=eastwest;rotatable=0;whiteSpace=wrap;html=1;" parent="wPWIn_zEP_00SwvqZCT9-25" vertex="1">
          <mxGeometry y="90" width="160" height="30" as="geometry" />
        </mxCell>
        <mxCell id="wPWIn_zEP_00SwvqZCT9-27" value="- created_at: Date" style="text;strokeColor=none;fillColor=#f5f5f5;align=left;verticalAlign=middle;spacingLeft=4;spacingRight=4;overflow=hidden;points=[[0,0.5],[1,0.5]];portConstraint=eastwest;rotatable=0;whiteSpace=wrap;html=1;fontColor=#000000;" parent="wPWIn_zEP_00SwvqZCT9-25" vertex="1">
          <mxGeometry y="120" width="160" height="30" as="geometry" />
        </mxCell>
        <mxCell id="wPWIn_zEP_00SwvqZCT9-28" value="- updated_at: Date" style="text;strokeColor=none;fillColor=none;align=left;verticalAlign=middle;spacingLeft=4;spacingRight=4;overflow=hidden;points=[[0,0.5],[1,0.5]];portConstraint=eastwest;rotatable=0;whiteSpace=wrap;html=1;" parent="wPWIn_zEP_00SwvqZCT9-25" vertex="1">
          <mxGeometry y="150" width="160" height="30" as="geometry" />
        </mxCell>
        <mxCell id="wPWIn_zEP_00SwvqZCT9-44" value="" style="line;strokeWidth=1;fillColor=none;align=left;verticalAlign=middle;spacingTop=-1;spacingLeft=3;spacingRight=3;rotatable=0;labelPosition=right;points=[];portConstraint=eastwest;strokeColor=inherit;" parent="wPWIn_zEP_00SwvqZCT9-25" vertex="1">
          <mxGeometry y="180" width="160" height="8" as="geometry" />
        </mxCell>
        <mxCell id="wPWIn_zEP_00SwvqZCT9-42" value="+ method(type): type" style="text;strokeColor=none;fillColor=none;align=left;verticalAlign=top;spacingLeft=4;spacingRight=4;overflow=hidden;rotatable=0;points=[[0,0.5],[1,0.5]];portConstraint=eastwest;whiteSpace=wrap;html=1;" parent="wPWIn_zEP_00SwvqZCT9-25" vertex="1">
          <mxGeometry y="188" width="160" height="26" as="geometry" />
        </mxCell>
        <mxCell id="wPWIn_zEP_00SwvqZCT9-33" value="&lt;b&gt;register_provider&lt;/b&gt;" style="swimlane;fontStyle=0;childLayout=stackLayout;horizontal=1;startSize=30;horizontalStack=0;resizeParent=1;resizeParentMax=0;resizeLast=0;collapsible=1;marginBottom=0;whiteSpace=wrap;html=1;fillColor=#dae8fc;strokeColor=#6c8ebf;gradientColor=none;swimlaneFillColor=default;verticalAlign=middle;shadow=1;" parent="1" vertex="1">
          <mxGeometry x="-800" y="4210" width="260" height="244" as="geometry" />
        </mxCell>
        <mxCell id="wPWIn_zEP_00SwvqZCT9-34" value="- id: Long/String" style="text;strokeColor=none;fillColor=none;align=left;verticalAlign=top;spacingLeft=4;spacingRight=4;overflow=hidden;points=[[0,0.5],[1,0.5]];portConstraint=eastwest;rotatable=0;whiteSpace=wrap;html=1;" parent="wPWIn_zEP_00SwvqZCT9-33" vertex="1">
          <mxGeometry y="30" width="260" height="30" as="geometry" />
        </mxCell>
        <mxCell id="wPWIn_zEP_00SwvqZCT9-35" value="- user_id: Long/String" style="text;strokeColor=none;fillColor=#f5f5f5;align=left;verticalAlign=top;spacingLeft=4;spacingRight=4;overflow=hidden;points=[[0,0.5],[1,0.5]];portConstraint=eastwest;rotatable=0;whiteSpace=wrap;html=1;fontColor=#000000;" parent="wPWIn_zEP_00SwvqZCT9-33" vertex="1">
          <mxGeometry y="60" width="260" height="30" as="geometry" />
        </mxCell>
        <mxCell id="wPWIn_zEP_00SwvqZCT9-40" value="- registered_provider_id: String" style="text;strokeColor=none;fillColor=none;align=left;verticalAlign=top;spacingLeft=4;spacingRight=4;overflow=hidden;points=[[0,0.5],[1,0.5]];portConstraint=eastwest;rotatable=0;whiteSpace=wrap;html=1;" parent="wPWIn_zEP_00SwvqZCT9-33" vertex="1">
          <mxGeometry y="90" width="260" height="30" as="geometry" />
        </mxCell>
        <mxCell id="wPWIn_zEP_00SwvqZCT9-36" value="- registered_provider_name:&amp;nbsp;&lt;span style=&quot;text-align: center;&quot;&gt;AuthProviderId&lt;/span&gt;&lt;div&gt;&lt;b style=&quot;text-align: center;&quot;&gt;&lt;br&gt;&lt;/b&gt;&lt;/div&gt;" style="text;strokeColor=none;fillColor=#f5f5f5;align=left;verticalAlign=top;spacingLeft=4;spacingRight=4;overflow=hidden;points=[[0,0.5],[1,0.5]];portConstraint=eastwest;rotatable=0;whiteSpace=wrap;html=1;fontColor=#000000;" parent="wPWIn_zEP_00SwvqZCT9-33" vertex="1">
          <mxGeometry y="120" width="260" height="30" as="geometry" />
        </mxCell>
        <mxCell id="wPWIn_zEP_00SwvqZCT9-37" value="- created_at: Date" style="text;align=left;verticalAlign=top;spacingLeft=4;spacingRight=4;overflow=hidden;points=[[0,0.5],[1,0.5]];portConstraint=eastwest;rotatable=0;whiteSpace=wrap;html=1;" parent="wPWIn_zEP_00SwvqZCT9-33" vertex="1">
          <mxGeometry y="150" width="260" height="30" as="geometry" />
        </mxCell>
        <mxCell id="wPWIn_zEP_00SwvqZCT9-38" value="- updated_at: Date" style="text;strokeColor=none;fillColor=#f5f5f5;align=left;verticalAlign=top;spacingLeft=4;spacingRight=4;overflow=hidden;points=[[0,0.5],[1,0.5]];portConstraint=eastwest;rotatable=0;whiteSpace=wrap;html=1;fontColor=#000000;" parent="wPWIn_zEP_00SwvqZCT9-33" vertex="1">
          <mxGeometry y="180" width="260" height="30" as="geometry" />
        </mxCell>
        <mxCell id="wPWIn_zEP_00SwvqZCT9-45" value="" style="line;strokeWidth=1;fillColor=none;align=left;verticalAlign=middle;spacingTop=-1;spacingLeft=3;spacingRight=3;rotatable=0;labelPosition=right;points=[];portConstraint=eastwest;strokeColor=inherit;" parent="wPWIn_zEP_00SwvqZCT9-33" vertex="1">
          <mxGeometry y="210" width="260" height="8" as="geometry" />
        </mxCell>
        <mxCell id="wPWIn_zEP_00SwvqZCT9-46" value="+ method(type): type" style="text;strokeColor=none;fillColor=none;align=left;verticalAlign=top;spacingLeft=4;spacingRight=4;overflow=hidden;rotatable=0;points=[[0,0.5],[1,0.5]];portConstraint=eastwest;whiteSpace=wrap;html=1;" parent="wPWIn_zEP_00SwvqZCT9-33" vertex="1">
          <mxGeometry y="218" width="260" height="26" as="geometry" />
        </mxCell>
        <mxCell id="wPWIn_zEP_00SwvqZCT9-41" value="&lt;p style=&quot;margin:0px;margin-top:4px;text-align:center;&quot;&gt;&lt;i&gt;&amp;lt;&amp;lt;enum&amp;gt;&amp;gt;&lt;/i&gt;&lt;br&gt;&lt;b&gt;AuthProviderId&lt;/b&gt;&lt;/p&gt;&lt;hr size=&quot;1&quot; style=&quot;border-style:solid;&quot;&gt;&lt;p style=&quot;margin:0px;margin-left:4px;&quot;&gt;app_custom_authentication,&lt;/p&gt;&lt;p style=&quot;margin:0px;margin-left:4px;&quot;&gt;google,&lt;/p&gt;&lt;p style=&quot;margin:0px;margin-left:4px;&quot;&gt;facebook&lt;/p&gt;&lt;p style=&quot;margin:0px;margin-left:4px;&quot;&gt;&lt;br&gt;&lt;/p&gt;&lt;p style=&quot;margin:0px;margin-left:4px;&quot;&gt;&lt;br&gt;&lt;/p&gt;" style="verticalAlign=top;align=left;overflow=fill;html=1;whiteSpace=wrap;points=[[0,0,0,0,0],[0,0.25,0,0,0],[0,0.5,0,0,0],[0,0.75,0,0,0],[0,1,0,0,0],[0.25,0,0,0,0],[0.25,1,0,0,0],[0.5,0,0,0,0],[0.5,1,0,0,0],[0.75,0,0,0,0],[0.75,1,0,0,0],[1,0,0,0,0],[1,0.25,0,0,0],[1,0.5,0,0,0],[1,0.75,0,0,0],[1,1,0,0,0]];fillColor=#f8cecc;strokeColor=#b85450;" parent="1" vertex="1">
          <mxGeometry x="-1000" y="4320" width="190" height="90" as="geometry" />
        </mxCell>
        <mxCell id="wPWIn_zEP_00SwvqZCT9-47" value="" style="endArrow=none;html=1;rounded=0;entryX=0.001;entryY=0.333;entryDx=0;entryDy=0;exitX=0.999;exitY=0.222;exitDx=0;exitDy=0;exitPerimeter=0;entryPerimeter=0;" parent="1" source="wPWIn_zEP_00SwvqZCT9-41" target="wPWIn_zEP_00SwvqZCT9-36" edge="1">
          <mxGeometry width="50" height="50" relative="1" as="geometry">
            <mxPoint x="-900" y="4110" as="sourcePoint" />
            <mxPoint x="-850" y="4060" as="targetPoint" />
          </mxGeometry>
        </mxCell>
        <mxCell id="wPWIn_zEP_00SwvqZCT9-55" value="Like" style="swimlane;fontStyle=1;align=center;verticalAlign=top;childLayout=stackLayout;horizontal=1;startSize=26;horizontalStack=0;resizeParent=1;resizeParentMax=0;resizeLast=0;collapsible=1;marginBottom=0;whiteSpace=wrap;html=1;rounded=0;shadow=1;swimlaneFillColor=default;fillColor=#d80073;fontColor=#ffffff;strokeColor=default;" parent="1" vertex="1">
          <mxGeometry x="-760" y="5078" width="160" height="224" as="geometry" />
        </mxCell>
        <mxCell id="wPWIn_zEP_00SwvqZCT9-56" value="- id: Long/String" style="text;strokeColor=none;fillColor=none;align=left;verticalAlign=top;spacingLeft=4;spacingRight=4;overflow=hidden;rotatable=0;points=[[0,0.5],[1,0.5]];portConstraint=eastwest;whiteSpace=wrap;html=1;" parent="wPWIn_zEP_00SwvqZCT9-55" vertex="1">
          <mxGeometry y="26" width="160" height="26" as="geometry" />
        </mxCell>
        <mxCell id="wPWIn_zEP_00SwvqZCT9-57" value="- user_id: Long/String" style="text;align=left;verticalAlign=top;spacingLeft=4;spacingRight=4;overflow=hidden;rotatable=0;points=[[0,0.5],[1,0.5]];portConstraint=eastwest;whiteSpace=wrap;html=1;rounded=0;fillColor=#f5f5f5;fontColor=#000000;strokeColor=none;" parent="wPWIn_zEP_00SwvqZCT9-55" vertex="1">
          <mxGeometry y="52" width="160" height="26" as="geometry" />
        </mxCell>
        <mxCell id="wPWIn_zEP_00SwvqZCT9-58" value="- product_id: Long/String" style="text;align=left;verticalAlign=top;spacingLeft=4;spacingRight=4;overflow=hidden;rotatable=0;points=[[0,0.5],[1,0.5]];portConstraint=eastwest;whiteSpace=wrap;html=1;rounded=1;" parent="wPWIn_zEP_00SwvqZCT9-55" vertex="1">
          <mxGeometry y="78" width="160" height="26" as="geometry" />
        </mxCell>
        <mxCell id="wPWIn_zEP_00SwvqZCT9-59" value="- counter_user_id: Long/String" style="text;align=left;verticalAlign=top;spacingLeft=4;spacingRight=4;overflow=hidden;rotatable=0;points=[[0,0.5],[1,0.5]];portConstraint=eastwest;whiteSpace=wrap;html=1;rounded=1;fontSize=11;fillColor=#f5f5f5;fontColor=#000000;strokeColor=none;fontStyle=0" parent="wPWIn_zEP_00SwvqZCT9-55" vertex="1">
          <mxGeometry y="104" width="160" height="26" as="geometry" />
        </mxCell>
        <mxCell id="wPWIn_zEP_00SwvqZCT9-63" value="- created_at: Date" style="text;align=left;verticalAlign=top;spacingLeft=4;spacingRight=4;overflow=hidden;points=[[0,0.5],[1,0.5]];portConstraint=eastwest;rotatable=0;whiteSpace=wrap;html=1;" parent="wPWIn_zEP_00SwvqZCT9-55" vertex="1">
          <mxGeometry y="130" width="160" height="30" as="geometry" />
        </mxCell>
        <mxCell id="wPWIn_zEP_00SwvqZCT9-64" value="- updated_at: Date" style="text;align=left;verticalAlign=top;spacingLeft=4;spacingRight=4;overflow=hidden;points=[[0,0.5],[1,0.5]];portConstraint=eastwest;rotatable=0;whiteSpace=wrap;html=1;fillColor=#f5f5f5;fontColor=#000000;strokeColor=none;" parent="wPWIn_zEP_00SwvqZCT9-55" vertex="1">
          <mxGeometry y="160" width="160" height="30" as="geometry" />
        </mxCell>
        <mxCell id="wPWIn_zEP_00SwvqZCT9-61" value="" style="line;strokeWidth=1;fillColor=none;align=left;verticalAlign=middle;spacingTop=-1;spacingLeft=3;spacingRight=3;rotatable=0;labelPosition=right;points=[];portConstraint=eastwest;strokeColor=inherit;" parent="wPWIn_zEP_00SwvqZCT9-55" vertex="1">
          <mxGeometry y="190" width="160" height="8" as="geometry" />
        </mxCell>
        <mxCell id="wPWIn_zEP_00SwvqZCT9-62" value="+ method(type): type" style="text;strokeColor=none;fillColor=none;align=left;verticalAlign=top;spacingLeft=4;spacingRight=4;overflow=hidden;rotatable=0;points=[[0,0.5],[1,0.5]];portConstraint=eastwest;whiteSpace=wrap;html=1;" parent="wPWIn_zEP_00SwvqZCT9-55" vertex="1">
          <mxGeometry y="198" width="160" height="26" as="geometry" />
        </mxCell>
        <mxCell id="wPWIn_zEP_00SwvqZCT9-65" value="Dislike" style="swimlane;fontStyle=1;align=center;verticalAlign=top;childLayout=stackLayout;horizontal=1;startSize=26;horizontalStack=0;resizeParent=1;resizeParentMax=0;resizeLast=0;collapsible=1;marginBottom=0;whiteSpace=wrap;html=1;rounded=0;shadow=1;swimlaneFillColor=default;fillColor=#f5f5f5;fontColor=#333333;strokeColor=default;" parent="1" vertex="1">
          <mxGeometry x="-760" y="5444" width="160" height="198" as="geometry" />
        </mxCell>
        <mxCell id="wPWIn_zEP_00SwvqZCT9-66" value="- id: Long/String" style="text;strokeColor=none;fillColor=default;align=left;verticalAlign=top;spacingLeft=4;spacingRight=4;overflow=hidden;rotatable=0;points=[[0,0.5],[1,0.5]];portConstraint=eastwest;whiteSpace=wrap;html=1;" parent="wPWIn_zEP_00SwvqZCT9-65" vertex="1">
          <mxGeometry y="26" width="160" height="26" as="geometry" />
        </mxCell>
        <mxCell id="wPWIn_zEP_00SwvqZCT9-67" value="- user_id: Long/String" style="text;align=left;verticalAlign=top;spacingLeft=4;spacingRight=4;overflow=hidden;rotatable=0;points=[[0,0.5],[1,0.5]];portConstraint=eastwest;whiteSpace=wrap;html=1;rounded=0;fillColor=#f5f5f5;fontColor=#000000;strokeColor=none;" parent="wPWIn_zEP_00SwvqZCT9-65" vertex="1">
          <mxGeometry y="52" width="160" height="26" as="geometry" />
        </mxCell>
        <mxCell id="wPWIn_zEP_00SwvqZCT9-68" value="- product_id: Long/String" style="text;align=left;verticalAlign=top;spacingLeft=4;spacingRight=4;overflow=hidden;rotatable=0;points=[[0,0.5],[1,0.5]];portConstraint=eastwest;whiteSpace=wrap;html=1;rounded=1;" parent="wPWIn_zEP_00SwvqZCT9-65" vertex="1">
          <mxGeometry y="78" width="160" height="26" as="geometry" />
        </mxCell>
        <mxCell id="wPWIn_zEP_00SwvqZCT9-72" value="- created_at: Date" style="text;align=left;verticalAlign=top;spacingLeft=4;spacingRight=4;overflow=hidden;points=[[0,0.5],[1,0.5]];portConstraint=eastwest;rotatable=0;whiteSpace=wrap;html=1;fillColor=#f5f5f5;fontColor=#000000;strokeColor=none;" parent="wPWIn_zEP_00SwvqZCT9-65" vertex="1">
          <mxGeometry y="104" width="160" height="30" as="geometry" />
        </mxCell>
        <mxCell id="wPWIn_zEP_00SwvqZCT9-73" value="- updated_at: Date" style="text;align=left;verticalAlign=top;spacingLeft=4;spacingRight=4;overflow=hidden;points=[[0,0.5],[1,0.5]];portConstraint=eastwest;rotatable=0;whiteSpace=wrap;html=1;" parent="wPWIn_zEP_00SwvqZCT9-65" vertex="1">
          <mxGeometry y="134" width="160" height="30" as="geometry" />
        </mxCell>
        <mxCell id="wPWIn_zEP_00SwvqZCT9-70" value="" style="line;strokeWidth=1;fillColor=none;align=left;verticalAlign=middle;spacingTop=-1;spacingLeft=3;spacingRight=3;rotatable=0;labelPosition=right;points=[];portConstraint=eastwest;strokeColor=inherit;" parent="wPWIn_zEP_00SwvqZCT9-65" vertex="1">
          <mxGeometry y="164" width="160" height="8" as="geometry" />
        </mxCell>
        <mxCell id="wPWIn_zEP_00SwvqZCT9-71" value="+ method(type): type" style="text;strokeColor=none;fillColor=none;align=left;verticalAlign=top;spacingLeft=4;spacingRight=4;overflow=hidden;rotatable=0;points=[[0,0.5],[1,0.5]];portConstraint=eastwest;whiteSpace=wrap;html=1;" parent="wPWIn_zEP_00SwvqZCT9-65" vertex="1">
          <mxGeometry y="172" width="160" height="26" as="geometry" />
        </mxCell>
        <mxCell id="wPWIn_zEP_00SwvqZCT9-76" value="Address" style="swimlane;fontStyle=1;align=center;verticalAlign=top;childLayout=stackLayout;horizontal=1;startSize=26;horizontalStack=0;resizeParent=1;resizeParentMax=0;resizeLast=0;collapsible=1;marginBottom=0;whiteSpace=wrap;html=1;fillColor=#fff2cc;strokeColor=#d6b656;rounded=0;shadow=1;swimlaneFillColor=default;fontColor=#000000;" parent="1" vertex="1">
          <mxGeometry x="-1464.5" y="5340" width="160" height="302" as="geometry" />
        </mxCell>
        <mxCell id="wPWIn_zEP_00SwvqZCT9-77" value="- id: Long/String" style="text;align=left;verticalAlign=top;spacingLeft=4;spacingRight=4;overflow=hidden;rotatable=0;points=[[0,0.5],[1,0.5]];portConstraint=eastwest;whiteSpace=wrap;html=1;rounded=1;" parent="wPWIn_zEP_00SwvqZCT9-76" vertex="1">
          <mxGeometry y="26" width="160" height="26" as="geometry" />
        </mxCell>
        <mxCell id="wPWIn_zEP_00SwvqZCT9-78" value="- first_line: String" style="text;align=left;verticalAlign=top;spacingLeft=4;spacingRight=4;overflow=hidden;rotatable=0;points=[[0,0.5],[1,0.5]];portConstraint=eastwest;whiteSpace=wrap;html=1;fillColor=#f5f5f5;fontColor=#000000;strokeColor=none;" parent="wPWIn_zEP_00SwvqZCT9-76" vertex="1">
          <mxGeometry y="52" width="160" height="26" as="geometry" />
        </mxCell>
        <mxCell id="wPWIn_zEP_00SwvqZCT9-79" value="- second_line: String" style="text;align=left;verticalAlign=top;spacingLeft=4;spacingRight=4;overflow=hidden;rotatable=0;points=[[0,0.5],[1,0.5]];portConstraint=eastwest;whiteSpace=wrap;html=1;" parent="wPWIn_zEP_00SwvqZCT9-76" vertex="1">
          <mxGeometry y="78" width="160" height="26" as="geometry" />
        </mxCell>
        <mxCell id="wPWIn_zEP_00SwvqZCT9-80" value="- town_city: String" style="text;strokeColor=none;fillColor=#f5f5f5;align=left;verticalAlign=top;spacingLeft=4;spacingRight=4;overflow=hidden;rotatable=0;points=[[0,0.5],[1,0.5]];portConstraint=eastwest;whiteSpace=wrap;html=1;fontColor=#000000;" parent="wPWIn_zEP_00SwvqZCT9-76" vertex="1">
          <mxGeometry y="104" width="160" height="26" as="geometry" />
        </mxCell>
        <mxCell id="wPWIn_zEP_00SwvqZCT9-81" value="- county: String" style="text;align=left;verticalAlign=top;spacingLeft=4;spacingRight=4;overflow=hidden;rotatable=0;points=[[0,0.5],[1,0.5]];portConstraint=eastwest;whiteSpace=wrap;html=1;" parent="wPWIn_zEP_00SwvqZCT9-76" vertex="1">
          <mxGeometry y="130" width="160" height="26" as="geometry" />
        </mxCell>
        <mxCell id="wPWIn_zEP_00SwvqZCT9-82" value="- postcode: String" style="text;strokeColor=none;fillColor=#f5f5f5;align=left;verticalAlign=top;spacingLeft=4;spacingRight=4;overflow=hidden;rotatable=0;points=[[0,0.5],[1,0.5]];portConstraint=eastwest;whiteSpace=wrap;html=1;fontColor=#000000;" parent="wPWIn_zEP_00SwvqZCT9-76" vertex="1">
          <mxGeometry y="156" width="160" height="26" as="geometry" />
        </mxCell>
        <mxCell id="wPWIn_zEP_00SwvqZCT9-83" value="- country: String" style="text;align=left;verticalAlign=top;spacingLeft=4;spacingRight=4;overflow=hidden;rotatable=0;points=[[0,0.5],[1,0.5]];portConstraint=eastwest;whiteSpace=wrap;html=1;" parent="wPWIn_zEP_00SwvqZCT9-76" vertex="1">
          <mxGeometry y="182" width="160" height="26" as="geometry" />
        </mxCell>
        <mxCell id="wPWIn_zEP_00SwvqZCT9-87" value="- created_at: Date" style="text;align=left;verticalAlign=top;spacingLeft=4;spacingRight=4;overflow=hidden;points=[[0,0.5],[1,0.5]];portConstraint=eastwest;rotatable=0;whiteSpace=wrap;html=1;fillColor=#f5f5f5;fontColor=#000000;strokeColor=none;" parent="wPWIn_zEP_00SwvqZCT9-76" vertex="1">
          <mxGeometry y="208" width="160" height="30" as="geometry" />
        </mxCell>
        <mxCell id="wPWIn_zEP_00SwvqZCT9-88" value="- updated_at: Date" style="text;align=left;verticalAlign=top;spacingLeft=4;spacingRight=4;overflow=hidden;points=[[0,0.5],[1,0.5]];portConstraint=eastwest;rotatable=0;whiteSpace=wrap;html=1;" parent="wPWIn_zEP_00SwvqZCT9-76" vertex="1">
          <mxGeometry y="238" width="160" height="30" as="geometry" />
        </mxCell>
        <mxCell id="wPWIn_zEP_00SwvqZCT9-85" value="" style="line;strokeWidth=1;fillColor=none;align=left;verticalAlign=middle;spacingTop=-1;spacingLeft=3;spacingRight=3;rotatable=0;labelPosition=right;points=[];portConstraint=eastwest;strokeColor=inherit;" parent="wPWIn_zEP_00SwvqZCT9-76" vertex="1">
          <mxGeometry y="268" width="160" height="8" as="geometry" />
        </mxCell>
        <mxCell id="wPWIn_zEP_00SwvqZCT9-86" value="+ method(type): type" style="text;strokeColor=none;fillColor=none;align=left;verticalAlign=top;spacingLeft=4;spacingRight=4;overflow=hidden;rotatable=0;points=[[0,0.5],[1,0.5]];portConstraint=eastwest;whiteSpace=wrap;html=1;" parent="wPWIn_zEP_00SwvqZCT9-76" vertex="1">
          <mxGeometry y="276" width="160" height="26" as="geometry" />
        </mxCell>
        <mxCell id="bh9HdsnnKBcZ5_Enlee--5" value="" style="edgeStyle=orthogonalEdgeStyle;rounded=0;orthogonalLoop=1;jettySize=auto;html=1;entryX=0.5;entryY=0;entryDx=0;entryDy=0;" edge="1" parent="1" source="wPWIn_zEP_00SwvqZCT9-89" target="bh9HdsnnKBcZ5_Enlee--1">
          <mxGeometry relative="1" as="geometry" />
        </mxCell>
        <mxCell id="wPWIn_zEP_00SwvqZCT9-89" value="App_Setting_type" style="swimlane;fontStyle=1;align=center;verticalAlign=top;childLayout=stackLayout;horizontal=1;startSize=26;horizontalStack=0;resizeParent=1;resizeParentMax=0;resizeLast=0;collapsible=1;marginBottom=0;whiteSpace=wrap;html=1;fillColor=#e1d5e7;strokeColor=#9673a6;rounded=0;shadow=1;swimlaneFillColor=default;" parent="1" vertex="1">
          <mxGeometry x="-1690" y="5350" width="160" height="86" as="geometry" />
        </mxCell>
        <mxCell id="wPWIn_zEP_00SwvqZCT9-90" value="+ id: type" style="text;strokeColor=none;fillColor=none;align=left;verticalAlign=top;spacingLeft=4;spacingRight=4;overflow=hidden;rotatable=0;points=[[0,0.5],[1,0.5]];portConstraint=eastwest;whiteSpace=wrap;html=1;" parent="wPWIn_zEP_00SwvqZCT9-89" vertex="1">
          <mxGeometry y="26" width="160" height="26" as="geometry" />
        </mxCell>
        <mxCell id="wPWIn_zEP_00SwvqZCT9-91" value="" style="line;strokeWidth=1;fillColor=none;align=left;verticalAlign=middle;spacingTop=-1;spacingLeft=3;spacingRight=3;rotatable=0;labelPosition=right;points=[];portConstraint=eastwest;strokeColor=inherit;" parent="wPWIn_zEP_00SwvqZCT9-89" vertex="1">
          <mxGeometry y="52" width="160" height="8" as="geometry" />
        </mxCell>
        <mxCell id="wPWIn_zEP_00SwvqZCT9-93" value="+ method(type): type" style="text;strokeColor=none;fillColor=none;align=left;verticalAlign=top;spacingLeft=4;spacingRight=4;overflow=hidden;rotatable=0;points=[[0,0.5],[1,0.5]];portConstraint=eastwest;whiteSpace=wrap;html=1;" parent="wPWIn_zEP_00SwvqZCT9-89" vertex="1">
          <mxGeometry y="60" width="160" height="26" as="geometry" />
        </mxCell>
        <mxCell id="wPWIn_zEP_00SwvqZCT9-94" value="product" style="swimlane;fontStyle=1;align=center;verticalAlign=top;childLayout=stackLayout;horizontal=1;startSize=26;horizontalStack=0;resizeParent=1;resizeParentMax=0;resizeLast=0;collapsible=1;marginBottom=0;whiteSpace=wrap;html=1;fillColor=#e51400;fontColor=#ffffff;strokeColor=default;shadow=1;swimlaneFillColor=default;rounded=0;" parent="1" vertex="1">
          <mxGeometry x="-290" y="4600" width="300" height="328" as="geometry" />
        </mxCell>
        <mxCell id="wPWIn_zEP_00SwvqZCT9-95" value="- id: Long/String" style="text;strokeColor=none;fillColor=none;align=left;verticalAlign=top;spacingLeft=4;spacingRight=4;overflow=hidden;rotatable=0;points=[[0,0.5],[1,0.5]];portConstraint=eastwest;whiteSpace=wrap;html=1;fontSize=12;" parent="wPWIn_zEP_00SwvqZCT9-94" vertex="1">
          <mxGeometry y="26" width="300" height="26" as="geometry" />
        </mxCell>
        <mxCell id="wPWIn_zEP_00SwvqZCT9-249" value="- user_id: Long/String" style="text;align=left;verticalAlign=top;spacingLeft=4;spacingRight=4;overflow=hidden;rotatable=0;points=[[0,0.5],[1,0.5]];portConstraint=eastwest;whiteSpace=wrap;html=1;fontSize=12;fillColor=#f5f5f5;fontColor=#000000;strokeColor=none;" parent="wPWIn_zEP_00SwvqZCT9-94" vertex="1">
          <mxGeometry y="52" width="300" height="26" as="geometry" />
        </mxCell>
        <mxCell id="wPWIn_zEP_00SwvqZCT9-96" value="- name: String" style="text;align=left;verticalAlign=top;spacingLeft=4;spacingRight=4;overflow=hidden;rotatable=0;points=[[0,0.5],[1,0.5]];portConstraint=eastwest;whiteSpace=wrap;html=1;fontSize=12;" parent="wPWIn_zEP_00SwvqZCT9-94" vertex="1">
          <mxGeometry y="78" width="300" height="26" as="geometry" />
        </mxCell>
        <mxCell id="wPWIn_zEP_00SwvqZCT9-97" value="- category_id: Long/String" style="text;strokeColor=none;fillColor=#f5f5f5;align=left;verticalAlign=top;spacingLeft=4;spacingRight=4;overflow=hidden;rotatable=0;points=[[0,0.5],[1,0.5]];portConstraint=eastwest;whiteSpace=wrap;html=1;fontSize=12;fontColor=#000000;" parent="wPWIn_zEP_00SwvqZCT9-94" vertex="1">
          <mxGeometry y="104" width="300" height="26" as="geometry" />
        </mxCell>
        <mxCell id="wPWIn_zEP_00SwvqZCT9-98" value="- subcategory_id: Long/String" style="text;align=left;verticalAlign=top;spacingLeft=4;spacingRight=4;overflow=hidden;rotatable=0;points=[[0,0.5],[1,0.5]];portConstraint=eastwest;whiteSpace=wrap;html=1;fontSize=12;" parent="wPWIn_zEP_00SwvqZCT9-94" vertex="1">
          <mxGeometry y="130" width="300" height="26" as="geometry" />
        </mxCell>
        <mxCell id="wPWIn_zEP_00SwvqZCT9-99" value="- estimated_amount_value: String" style="text;strokeColor=none;fillColor=#f5f5f5;align=left;verticalAlign=top;spacingLeft=4;spacingRight=4;overflow=hidden;rotatable=0;points=[[0,0.5],[1,0.5]];portConstraint=eastwest;whiteSpace=wrap;html=1;fontSize=12;fontColor=#000000;" parent="wPWIn_zEP_00SwvqZCT9-94" vertex="1">
          <mxGeometry y="156" width="300" height="26" as="geometry" />
        </mxCell>
        <mxCell id="wPWIn_zEP_00SwvqZCT9-100" value="- estimated_amount_currency: String(3)(ISO 4217)" style="text;align=left;verticalAlign=top;spacingLeft=4;spacingRight=4;overflow=hidden;rotatable=0;points=[[0,0.5],[1,0.5]];portConstraint=eastwest;whiteSpace=wrap;html=1;fontSize=12;" parent="wPWIn_zEP_00SwvqZCT9-94" vertex="1">
          <mxGeometry y="182" width="300" height="26" as="geometry" />
        </mxCell>
        <mxCell id="wPWIn_zEP_00SwvqZCT9-101" value="- description: String" style="text;strokeColor=none;fillColor=#f5f5f5;align=left;verticalAlign=top;spacingLeft=4;spacingRight=4;overflow=hidden;rotatable=0;points=[[0,0.5],[1,0.5]];portConstraint=eastwest;whiteSpace=wrap;html=1;fontSize=12;fontColor=#000000;" parent="wPWIn_zEP_00SwvqZCT9-94" vertex="1">
          <mxGeometry y="208" width="300" height="26" as="geometry" />
        </mxCell>
        <mxCell id="wPWIn_zEP_00SwvqZCT9-105" value="- created_at: Date" style="text;align=left;verticalAlign=middle;spacingLeft=4;spacingRight=4;overflow=hidden;points=[[0,0.5],[1,0.5]];portConstraint=eastwest;rotatable=0;whiteSpace=wrap;html=1;" parent="wPWIn_zEP_00SwvqZCT9-94" vertex="1">
          <mxGeometry y="234" width="300" height="30" as="geometry" />
        </mxCell>
        <mxCell id="wPWIn_zEP_00SwvqZCT9-106" value="- updated_at: Date" style="text;strokeColor=none;fillColor=#f5f5f5;align=left;verticalAlign=middle;spacingLeft=4;spacingRight=4;overflow=hidden;points=[[0,0.5],[1,0.5]];portConstraint=eastwest;rotatable=0;whiteSpace=wrap;html=1;fontColor=#000000;" parent="wPWIn_zEP_00SwvqZCT9-94" vertex="1">
          <mxGeometry y="264" width="300" height="30" as="geometry" />
        </mxCell>
        <mxCell id="wPWIn_zEP_00SwvqZCT9-103" value="" style="line;strokeWidth=1;fillColor=none;align=left;verticalAlign=middle;spacingTop=-1;spacingLeft=3;spacingRight=3;rotatable=0;labelPosition=right;points=[];portConstraint=eastwest;strokeColor=inherit;" parent="wPWIn_zEP_00SwvqZCT9-94" vertex="1">
          <mxGeometry y="294" width="300" height="8" as="geometry" />
        </mxCell>
        <mxCell id="wPWIn_zEP_00SwvqZCT9-275" value="" style="endArrow=none;html=1;rounded=0;exitX=0;exitY=0.5;exitDx=0;exitDy=0;edgeStyle=orthogonalEdgeStyle;" parent="wPWIn_zEP_00SwvqZCT9-94" source="wPWIn_zEP_00SwvqZCT9-109" edge="1">
          <mxGeometry width="50" height="50" relative="1" as="geometry">
            <mxPoint x="280" y="460" as="sourcePoint" />
            <mxPoint x="300" y="240" as="targetPoint" />
            <Array as="points">
              <mxPoint x="390" y="345" />
              <mxPoint x="390" y="240" />
            </Array>
          </mxGeometry>
        </mxCell>
        <mxCell id="wPWIn_zEP_00SwvqZCT9-104" value="+ method(type): type" style="text;strokeColor=none;fillColor=none;align=left;verticalAlign=top;spacingLeft=4;spacingRight=4;overflow=hidden;rotatable=0;points=[[0,0.5],[1,0.5]];portConstraint=eastwest;whiteSpace=wrap;html=1;fontSize=12;" parent="wPWIn_zEP_00SwvqZCT9-94" vertex="1">
          <mxGeometry y="302" width="300" height="26" as="geometry" />
        </mxCell>
        <mxCell id="wPWIn_zEP_00SwvqZCT9-107" value="Category" style="swimlane;fontStyle=1;align=center;verticalAlign=top;childLayout=stackLayout;horizontal=1;startSize=26;horizontalStack=0;resizeParent=1;resizeParentMax=0;resizeLast=0;collapsible=1;marginBottom=0;whiteSpace=wrap;html=1;fillColor=#e3c800;fontColor=#000000;strokeColor=#B09500;shadow=1;swimlaneFillColor=default;rounded=0;" parent="1" vertex="1">
          <mxGeometry x="210" y="4880" width="160" height="172" as="geometry" />
        </mxCell>
        <mxCell id="wPWIn_zEP_00SwvqZCT9-108" value="- id: Long/String" style="text;strokeColor=none;fillColor=none;align=left;verticalAlign=top;spacingLeft=4;spacingRight=4;overflow=hidden;rotatable=0;points=[[0,0.5],[1,0.5]];portConstraint=eastwest;whiteSpace=wrap;html=1;" parent="wPWIn_zEP_00SwvqZCT9-107" vertex="1">
          <mxGeometry y="26" width="160" height="26" as="geometry" />
        </mxCell>
        <mxCell id="wPWIn_zEP_00SwvqZCT9-109" value="- name: String" style="text;align=left;verticalAlign=top;spacingLeft=4;spacingRight=4;overflow=hidden;rotatable=0;points=[[0,0.5],[1,0.5]];portConstraint=eastwest;whiteSpace=wrap;html=1;fillColor=#f5f5f5;fontColor=#000000;strokeColor=none;" parent="wPWIn_zEP_00SwvqZCT9-107" vertex="1">
          <mxGeometry y="52" width="160" height="26" as="geometry" />
        </mxCell>
        <mxCell id="wPWIn_zEP_00SwvqZCT9-123" value="- updated_at: Date" style="text;strokeColor=none;fillColor=none;align=left;verticalAlign=middle;spacingLeft=4;spacingRight=4;overflow=hidden;points=[[0,0.5],[1,0.5]];portConstraint=eastwest;rotatable=0;whiteSpace=wrap;html=1;" parent="wPWIn_zEP_00SwvqZCT9-107" vertex="1">
          <mxGeometry y="78" width="160" height="30" as="geometry" />
        </mxCell>
        <mxCell id="wPWIn_zEP_00SwvqZCT9-122" value="- created_at: Date" style="text;align=left;verticalAlign=middle;spacingLeft=4;spacingRight=4;overflow=hidden;points=[[0,0.5],[1,0.5]];portConstraint=eastwest;rotatable=0;whiteSpace=wrap;html=1;fillColor=#f5f5f5;fontColor=#000000;strokeColor=none;" parent="wPWIn_zEP_00SwvqZCT9-107" vertex="1">
          <mxGeometry y="108" width="160" height="30" as="geometry" />
        </mxCell>
        <mxCell id="wPWIn_zEP_00SwvqZCT9-111" value="" style="line;strokeWidth=1;fillColor=none;align=left;verticalAlign=middle;spacingTop=-1;spacingLeft=3;spacingRight=3;rotatable=0;labelPosition=right;points=[];portConstraint=eastwest;strokeColor=inherit;" parent="wPWIn_zEP_00SwvqZCT9-107" vertex="1">
          <mxGeometry y="138" width="160" height="8" as="geometry" />
        </mxCell>
        <mxCell id="wPWIn_zEP_00SwvqZCT9-112" value="+ method(type): type" style="text;strokeColor=none;fillColor=none;align=left;verticalAlign=top;spacingLeft=4;spacingRight=4;overflow=hidden;rotatable=0;points=[[0,0.5],[1,0.5]];portConstraint=eastwest;whiteSpace=wrap;html=1;" parent="wPWIn_zEP_00SwvqZCT9-107" vertex="1">
          <mxGeometry y="146" width="160" height="26" as="geometry" />
        </mxCell>
        <mxCell id="wPWIn_zEP_00SwvqZCT9-113" value="Sub_Category" style="swimlane;fontStyle=1;align=center;verticalAlign=top;childLayout=stackLayout;horizontal=1;startSize=26;horizontalStack=0;resizeParent=1;resizeParentMax=0;resizeLast=0;collapsible=1;marginBottom=0;whiteSpace=wrap;html=1;fillColor=#e3c800;fontColor=#000000;strokeColor=#B09500;shadow=1;swimlaneFillColor=default;rounded=0;" parent="1" vertex="1">
          <mxGeometry x="210" y="4560" width="160" height="198" as="geometry" />
        </mxCell>
        <mxCell id="wPWIn_zEP_00SwvqZCT9-114" value="- id: Long/String" style="text;strokeColor=none;fillColor=none;align=left;verticalAlign=top;spacingLeft=4;spacingRight=4;overflow=hidden;rotatable=0;points=[[0,0.5],[1,0.5]];portConstraint=eastwest;whiteSpace=wrap;html=1;" parent="wPWIn_zEP_00SwvqZCT9-113" vertex="1">
          <mxGeometry y="26" width="160" height="26" as="geometry" />
        </mxCell>
        <mxCell id="wPWIn_zEP_00SwvqZCT9-115" value="- category_id: Long/String" style="text;strokeColor=none;fillColor=#f5f5f5;align=left;verticalAlign=top;spacingLeft=4;spacingRight=4;overflow=hidden;rotatable=0;points=[[0,0.5],[1,0.5]];portConstraint=eastwest;whiteSpace=wrap;html=1;fontColor=#000000;" parent="wPWIn_zEP_00SwvqZCT9-113" vertex="1">
          <mxGeometry y="52" width="160" height="26" as="geometry" />
        </mxCell>
        <mxCell id="wPWIn_zEP_00SwvqZCT9-116" value="- name: String" style="text;align=left;verticalAlign=top;spacingLeft=4;spacingRight=4;overflow=hidden;rotatable=0;points=[[0,0.5],[1,0.5]];portConstraint=eastwest;whiteSpace=wrap;html=1;" parent="wPWIn_zEP_00SwvqZCT9-113" vertex="1">
          <mxGeometry y="78" width="160" height="26" as="geometry" />
        </mxCell>
        <mxCell id="wPWIn_zEP_00SwvqZCT9-121" value="- updated_at: Date" style="text;strokeColor=none;fillColor=#f5f5f5;align=left;verticalAlign=middle;spacingLeft=4;spacingRight=4;overflow=hidden;points=[[0,0.5],[1,0.5]];portConstraint=eastwest;rotatable=0;whiteSpace=wrap;html=1;fontColor=#000000;" parent="wPWIn_zEP_00SwvqZCT9-113" vertex="1">
          <mxGeometry y="104" width="160" height="30" as="geometry" />
        </mxCell>
        <mxCell id="wPWIn_zEP_00SwvqZCT9-120" value="- created_at: Date" style="text;align=left;verticalAlign=middle;spacingLeft=4;spacingRight=4;overflow=hidden;points=[[0,0.5],[1,0.5]];portConstraint=eastwest;rotatable=0;whiteSpace=wrap;html=1;" parent="wPWIn_zEP_00SwvqZCT9-113" vertex="1">
          <mxGeometry y="134" width="160" height="30" as="geometry" />
        </mxCell>
        <mxCell id="wPWIn_zEP_00SwvqZCT9-118" value="" style="line;strokeWidth=1;fillColor=none;align=left;verticalAlign=middle;spacingTop=-1;spacingLeft=3;spacingRight=3;rotatable=0;labelPosition=right;points=[];portConstraint=eastwest;strokeColor=inherit;" parent="wPWIn_zEP_00SwvqZCT9-113" vertex="1">
          <mxGeometry y="164" width="160" height="8" as="geometry" />
        </mxCell>
        <mxCell id="wPWIn_zEP_00SwvqZCT9-119" value="+ method(type): type" style="text;strokeColor=none;fillColor=none;align=left;verticalAlign=top;spacingLeft=4;spacingRight=4;overflow=hidden;rotatable=0;points=[[0,0.5],[1,0.5]];portConstraint=eastwest;whiteSpace=wrap;html=1;" parent="wPWIn_zEP_00SwvqZCT9-113" vertex="1">
          <mxGeometry y="172" width="160" height="26" as="geometry" />
        </mxCell>
        <mxCell id="wPWIn_zEP_00SwvqZCT9-136" value="token_refresh" style="swimlane;fontStyle=1;align=center;verticalAlign=top;childLayout=stackLayout;horizontal=1;startSize=26;horizontalStack=0;resizeParent=1;resizeParentMax=0;resizeLast=0;collapsible=1;marginBottom=0;whiteSpace=wrap;html=1;fillColor=#dae8fc;strokeColor=#6c8ebf;rounded=0;shadow=1;swimlaneFillColor=default;" parent="1" vertex="1">
          <mxGeometry x="-2090" y="4980" width="160" height="276" as="geometry" />
        </mxCell>
        <mxCell id="wPWIn_zEP_00SwvqZCT9-137" value="- id: Long/String" style="text;strokeColor=none;fillColor=none;align=left;verticalAlign=top;spacingLeft=4;spacingRight=4;overflow=hidden;rotatable=0;points=[[0,0.5],[1,0.5]];portConstraint=eastwest;whiteSpace=wrap;html=1;" parent="wPWIn_zEP_00SwvqZCT9-136" vertex="1">
          <mxGeometry y="26" width="160" height="26" as="geometry" />
        </mxCell>
        <mxCell id="wPWIn_zEP_00SwvqZCT9-138" value="- token: String&lt;div&gt;&lt;br&gt;&lt;/div&gt;&lt;div&gt;&lt;br&gt;&lt;/div&gt;&lt;div&gt;&lt;br&gt;&lt;/div&gt;" style="text;align=left;verticalAlign=top;spacingLeft=4;spacingRight=4;overflow=hidden;rotatable=0;points=[[0,0.5],[1,0.5]];portConstraint=eastwest;whiteSpace=wrap;html=1;fillColor=#f5f5f5;fontColor=#000000;strokeColor=none;" parent="wPWIn_zEP_00SwvqZCT9-136" vertex="1">
          <mxGeometry y="52" width="160" height="26" as="geometry" />
        </mxCell>
        <mxCell id="wPWIn_zEP_00SwvqZCT9-227" value="- user_id: Long/String" style="text;strokeColor=none;fillColor=none;align=left;verticalAlign=top;spacingLeft=4;spacingRight=4;overflow=hidden;rotatable=0;points=[[0,0.5],[1,0.5]];portConstraint=eastwest;whiteSpace=wrap;html=1;" parent="wPWIn_zEP_00SwvqZCT9-136" vertex="1">
          <mxGeometry y="78" width="160" height="26" as="geometry" />
        </mxCell>
        <mxCell id="wPWIn_zEP_00SwvqZCT9-228" value="- user_type: Long/String" style="text;strokeColor=none;fillColor=#f5f5f5;align=left;verticalAlign=top;spacingLeft=4;spacingRight=4;overflow=hidden;rotatable=0;points=[[0,0.5],[1,0.5]];portConstraint=eastwest;whiteSpace=wrap;html=1;fontColor=#000000;" parent="wPWIn_zEP_00SwvqZCT9-136" vertex="1">
          <mxGeometry y="104" width="160" height="26" as="geometry" />
        </mxCell>
        <mxCell id="wPWIn_zEP_00SwvqZCT9-226" value="- refresh_token: String&lt;div&gt;&lt;br&gt;&lt;/div&gt;&lt;div&gt;&lt;br&gt;&lt;/div&gt;&lt;div&gt;&lt;br&gt;&lt;/div&gt;" style="text;align=left;verticalAlign=top;spacingLeft=4;spacingRight=4;overflow=hidden;rotatable=0;points=[[0,0.5],[1,0.5]];portConstraint=eastwest;whiteSpace=wrap;html=1;" parent="wPWIn_zEP_00SwvqZCT9-136" vertex="1">
          <mxGeometry y="130" width="160" height="26" as="geometry" />
        </mxCell>
        <mxCell id="wPWIn_zEP_00SwvqZCT9-223" value="- device_type: String&lt;div&gt;&lt;br&gt;&lt;/div&gt;&lt;div&gt;&lt;br&gt;&lt;/div&gt;&lt;div&gt;&lt;br&gt;&lt;/div&gt;" style="text;align=left;verticalAlign=top;spacingLeft=4;spacingRight=4;overflow=hidden;rotatable=0;points=[[0,0.5],[1,0.5]];portConstraint=eastwest;whiteSpace=wrap;html=1;fillColor=#f5f5f5;fontColor=#000000;strokeColor=none;" parent="wPWIn_zEP_00SwvqZCT9-136" vertex="1">
          <mxGeometry y="156" width="160" height="26" as="geometry" />
        </mxCell>
        <mxCell id="wPWIn_zEP_00SwvqZCT9-142" value="- created_at: Date" style="text;align=left;verticalAlign=middle;spacingLeft=4;spacingRight=4;overflow=hidden;points=[[0,0.5],[1,0.5]];portConstraint=eastwest;rotatable=0;whiteSpace=wrap;html=1;" parent="wPWIn_zEP_00SwvqZCT9-136" vertex="1">
          <mxGeometry y="182" width="160" height="30" as="geometry" />
        </mxCell>
        <mxCell id="wPWIn_zEP_00SwvqZCT9-143" value="- updated_at: Date" style="text;strokeColor=none;fillColor=#f5f5f5;align=left;verticalAlign=middle;spacingLeft=4;spacingRight=4;overflow=hidden;points=[[0,0.5],[1,0.5]];portConstraint=eastwest;rotatable=0;whiteSpace=wrap;html=1;fontColor=#000000;" parent="wPWIn_zEP_00SwvqZCT9-136" vertex="1">
          <mxGeometry y="212" width="160" height="30" as="geometry" />
        </mxCell>
        <mxCell id="wPWIn_zEP_00SwvqZCT9-140" value="" style="line;strokeWidth=1;fillColor=none;align=left;verticalAlign=middle;spacingTop=-1;spacingLeft=3;spacingRight=3;rotatable=0;labelPosition=right;points=[];portConstraint=eastwest;strokeColor=inherit;" parent="wPWIn_zEP_00SwvqZCT9-136" vertex="1">
          <mxGeometry y="242" width="160" height="8" as="geometry" />
        </mxCell>
        <mxCell id="wPWIn_zEP_00SwvqZCT9-141" value="+ method(type): type" style="text;strokeColor=none;fillColor=none;align=left;verticalAlign=top;spacingLeft=4;spacingRight=4;overflow=hidden;rotatable=0;points=[[0,0.5],[1,0.5]];portConstraint=eastwest;whiteSpace=wrap;html=1;" parent="wPWIn_zEP_00SwvqZCT9-136" vertex="1">
          <mxGeometry y="250" width="160" height="26" as="geometry" />
        </mxCell>
        <mxCell id="wPWIn_zEP_00SwvqZCT9-160" value="offer_recipient" style="swimlane;fontStyle=1;align=center;verticalAlign=top;childLayout=stackLayout;horizontal=1;startSize=26;horizontalStack=0;resizeParent=1;resizeParentMax=0;resizeLast=0;collapsible=1;marginBottom=0;whiteSpace=wrap;html=1;fillColor=#6d8764;fontColor=#ffffff;strokeColor=#3A5431;shadow=1;swimlaneFillColor=default;rounded=0;" parent="1" vertex="1">
          <mxGeometry x="-1340" y="4187" width="160" height="112" as="geometry" />
        </mxCell>
        <mxCell id="lUCr0uX9j98xc51VkzF5-32" value="- id: Long/String" style="text;align=left;verticalAlign=top;spacingLeft=4;spacingRight=4;overflow=hidden;rotatable=0;points=[[0,0.5],[1,0.5]];portConstraint=eastwest;whiteSpace=wrap;html=1;" parent="wPWIn_zEP_00SwvqZCT9-160" vertex="1">
          <mxGeometry y="26" width="160" height="26" as="geometry" />
        </mxCell>
        <mxCell id="bh9HdsnnKBcZ5_Enlee--21" value="- offer_id: Long/String" style="text;align=left;verticalAlign=top;spacingLeft=4;spacingRight=4;overflow=hidden;rotatable=0;points=[[0,0.5],[1,0.5]];portConstraint=eastwest;whiteSpace=wrap;html=1;" vertex="1" parent="wPWIn_zEP_00SwvqZCT9-160">
          <mxGeometry y="52" width="160" height="26" as="geometry" />
        </mxCell>
        <mxCell id="wPWIn_zEP_00SwvqZCT9-162" value="" style="line;strokeWidth=1;fillColor=none;align=left;verticalAlign=middle;spacingTop=-1;spacingLeft=3;spacingRight=3;rotatable=0;labelPosition=right;points=[];portConstraint=eastwest;strokeColor=inherit;" parent="wPWIn_zEP_00SwvqZCT9-160" vertex="1">
          <mxGeometry y="78" width="160" height="8" as="geometry" />
        </mxCell>
        <mxCell id="wPWIn_zEP_00SwvqZCT9-163" value="+ method(type): type" style="text;strokeColor=none;fillColor=none;align=left;verticalAlign=top;spacingLeft=4;spacingRight=4;overflow=hidden;rotatable=0;points=[[0,0.5],[1,0.5]];portConstraint=eastwest;whiteSpace=wrap;html=1;" parent="wPWIn_zEP_00SwvqZCT9-160" vertex="1">
          <mxGeometry y="86" width="160" height="26" as="geometry" />
        </mxCell>
        <mxCell id="bh9HdsnnKBcZ5_Enlee--23" style="edgeStyle=orthogonalEdgeStyle;rounded=0;orthogonalLoop=1;jettySize=auto;html=1;entryX=0.682;entryY=1.057;entryDx=0;entryDy=0;entryPerimeter=0;" edge="1" parent="1" source="wPWIn_zEP_00SwvqZCT9-164" target="bh9HdsnnKBcZ5_Enlee--19">
          <mxGeometry relative="1" as="geometry">
            <mxPoint x="-1540" y="3720" as="targetPoint" />
            <Array as="points">
              <mxPoint x="-1480" y="3715" />
            </Array>
          </mxGeometry>
        </mxCell>
        <mxCell id="wPWIn_zEP_00SwvqZCT9-164" value="offer" style="swimlane;fontStyle=1;align=center;verticalAlign=top;childLayout=stackLayout;horizontal=1;startSize=26;horizontalStack=0;resizeParent=1;resizeParentMax=0;resizeLast=0;collapsible=1;marginBottom=0;whiteSpace=wrap;html=1;fillColor=#6d8764;fontColor=#ffffff;strokeColor=#3A5431;shadow=1;swimlaneFillColor=default;rounded=0;" parent="1" vertex="1">
          <mxGeometry x="-1510" y="3940" width="210" height="190" as="geometry" />
        </mxCell>
        <mxCell id="lUCr0uX9j98xc51VkzF5-16" value="- id: Long/String" style="text;align=left;verticalAlign=top;spacingLeft=4;spacingRight=4;overflow=hidden;rotatable=0;points=[[0,0.5],[1,0.5]];portConstraint=eastwest;whiteSpace=wrap;html=1;" parent="wPWIn_zEP_00SwvqZCT9-164" vertex="1">
          <mxGeometry y="26" width="210" height="26" as="geometry" />
        </mxCell>
        <mxCell id="bh9HdsnnKBcZ5_Enlee--28" value="- offer_sender_id: Long/String" style="text;align=left;verticalAlign=top;spacingLeft=4;spacingRight=4;overflow=hidden;rotatable=0;points=[[0,0.5],[1,0.5]];portConstraint=eastwest;whiteSpace=wrap;html=1;" vertex="1" parent="wPWIn_zEP_00SwvqZCT9-164">
          <mxGeometry y="52" width="210" height="26" as="geometry" />
        </mxCell>
        <mxCell id="bh9HdsnnKBcZ5_Enlee--29" value="- offer_recipient_id: Long/String" style="text;align=left;verticalAlign=top;spacingLeft=4;spacingRight=4;overflow=hidden;rotatable=0;points=[[0,0.5],[1,0.5]];portConstraint=eastwest;whiteSpace=wrap;html=1;" vertex="1" parent="wPWIn_zEP_00SwvqZCT9-164">
          <mxGeometry y="78" width="210" height="26" as="geometry" />
        </mxCell>
        <mxCell id="bh9HdsnnKBcZ5_Enlee--26" value="- offer_date_time: DateTime" style="text;align=left;verticalAlign=top;spacingLeft=4;spacingRight=4;overflow=hidden;rotatable=0;points=[[0,0.5],[1,0.5]];portConstraint=eastwest;whiteSpace=wrap;html=1;" vertex="1" parent="wPWIn_zEP_00SwvqZCT9-164">
          <mxGeometry y="104" width="210" height="26" as="geometry" />
        </mxCell>
        <mxCell id="bh9HdsnnKBcZ5_Enlee--27" value="- status: String" style="text;align=left;verticalAlign=top;spacingLeft=4;spacingRight=4;overflow=hidden;rotatable=0;points=[[0,0.5],[1,0.5]];portConstraint=eastwest;whiteSpace=wrap;html=1;" vertex="1" parent="wPWIn_zEP_00SwvqZCT9-164">
          <mxGeometry y="130" width="210" height="26" as="geometry" />
        </mxCell>
        <mxCell id="wPWIn_zEP_00SwvqZCT9-166" value="" style="line;strokeWidth=1;fillColor=none;align=left;verticalAlign=middle;spacingTop=-1;spacingLeft=3;spacingRight=3;rotatable=0;labelPosition=right;points=[];portConstraint=eastwest;strokeColor=inherit;" parent="wPWIn_zEP_00SwvqZCT9-164" vertex="1">
          <mxGeometry y="156" width="210" height="8" as="geometry" />
        </mxCell>
        <mxCell id="wPWIn_zEP_00SwvqZCT9-167" value="+ method(type): type" style="text;strokeColor=none;fillColor=none;align=left;verticalAlign=top;spacingLeft=4;spacingRight=4;overflow=hidden;rotatable=0;points=[[0,0.5],[1,0.5]];portConstraint=eastwest;whiteSpace=wrap;html=1;" parent="wPWIn_zEP_00SwvqZCT9-164" vertex="1">
          <mxGeometry y="164" width="210" height="26" as="geometry" />
        </mxCell>
        <mxCell id="wPWIn_zEP_00SwvqZCT9-168" value="offer_sender" style="swimlane;fontStyle=1;align=center;verticalAlign=top;childLayout=stackLayout;horizontal=1;startSize=26;horizontalStack=0;resizeParent=1;resizeParentMax=0;resizeLast=0;collapsible=1;marginBottom=0;whiteSpace=wrap;html=1;fillColor=#6d8764;fontColor=#ffffff;strokeColor=#3A5431;shadow=1;swimlaneFillColor=default;rounded=0;points=[[0,0,0,0,0],[0,0.25,0,0,0],[0,0.5,0,0,0],[0,0.75,0,0,0],[0,1,0,0,0],[0.25,0,0,0,0],[0.25,1,0,0,0],[0.5,0,0,0,0],[0.5,1,0,0,0],[0.75,0,0,0,0],[0.75,1,0,0,0],[1,0,0,0,0],[1,0.25,0,0,0],[1,0.5,0,0,0],[1,0.75,0,0,0],[1,1,0,0,0]];" parent="1" vertex="1">
          <mxGeometry x="-1340" y="3682" width="160" height="112" as="geometry">
            <mxRectangle x="-1340" y="3760" width="50" height="30" as="alternateBounds" />
          </mxGeometry>
        </mxCell>
        <mxCell id="lUCr0uX9j98xc51VkzF5-28" value="- id: Long/String" style="text;align=left;verticalAlign=top;spacingLeft=4;spacingRight=4;overflow=hidden;rotatable=0;points=[[0,0.5],[1,0.5]];portConstraint=eastwest;whiteSpace=wrap;html=1;" parent="wPWIn_zEP_00SwvqZCT9-168" vertex="1">
          <mxGeometry y="26" width="160" height="26" as="geometry" />
        </mxCell>
        <mxCell id="bh9HdsnnKBcZ5_Enlee--20" value="- offer_id: Long/String" style="text;align=left;verticalAlign=top;spacingLeft=4;spacingRight=4;overflow=hidden;rotatable=0;points=[[0,0.5],[1,0.5]];portConstraint=eastwest;whiteSpace=wrap;html=1;" vertex="1" parent="wPWIn_zEP_00SwvqZCT9-168">
          <mxGeometry y="52" width="160" height="26" as="geometry" />
        </mxCell>
        <mxCell id="wPWIn_zEP_00SwvqZCT9-170" value="" style="line;strokeWidth=1;fillColor=none;align=left;verticalAlign=middle;spacingTop=-1;spacingLeft=3;spacingRight=3;rotatable=0;labelPosition=right;points=[];portConstraint=eastwest;strokeColor=inherit;" parent="wPWIn_zEP_00SwvqZCT9-168" vertex="1">
          <mxGeometry y="78" width="160" height="8" as="geometry" />
        </mxCell>
        <mxCell id="wPWIn_zEP_00SwvqZCT9-171" value="+ method(type): type" style="text;strokeColor=none;fillColor=none;align=left;verticalAlign=top;spacingLeft=4;spacingRight=4;overflow=hidden;rotatable=0;points=[[0,0.5],[1,0.5]];portConstraint=eastwest;whiteSpace=wrap;html=1;" parent="wPWIn_zEP_00SwvqZCT9-168" vertex="1">
          <mxGeometry y="86" width="160" height="26" as="geometry" />
        </mxCell>
        <mxCell id="wPWIn_zEP_00SwvqZCT9-172" value="chat" style="swimlane;fontStyle=1;align=center;verticalAlign=top;childLayout=stackLayout;horizontal=1;startSize=26;horizontalStack=0;resizeParent=1;resizeParentMax=0;resizeLast=0;collapsible=1;marginBottom=0;whiteSpace=wrap;html=1;fillColor=#f8cecc;strokeColor=#b85450;swimlaneFillColor=default;rounded=0;shadow=1;glass=0;" parent="1" vertex="1">
          <mxGeometry x="-1960" y="4060" width="220" height="190" as="geometry" />
        </mxCell>
        <mxCell id="lUCr0uX9j98xc51VkzF5-1" value="- id: Long/String" style="text;strokeColor=none;fillColor=none;align=left;verticalAlign=top;spacingLeft=4;spacingRight=4;overflow=hidden;rotatable=0;points=[[0,0.5],[1,0.5]];portConstraint=eastwest;whiteSpace=wrap;html=1;" parent="wPWIn_zEP_00SwvqZCT9-172" vertex="1">
          <mxGeometry y="26" width="220" height="26" as="geometry" />
        </mxCell>
        <mxCell id="lUCr0uX9j98xc51VkzF5-4" value="- recipient_id: Long/String" style="text;strokeColor=none;fillColor=none;align=left;verticalAlign=top;spacingLeft=4;spacingRight=4;overflow=hidden;rotatable=0;points=[[0,0.5],[1,0.5]];portConstraint=eastwest;whiteSpace=wrap;html=1;" parent="wPWIn_zEP_00SwvqZCT9-172" vertex="1">
          <mxGeometry y="52" width="220" height="26" as="geometry" />
        </mxCell>
        <mxCell id="lUCr0uX9j98xc51VkzF5-3" value="- sender_id: Long/String" style="text;strokeColor=none;fillColor=none;align=left;verticalAlign=top;spacingLeft=4;spacingRight=4;overflow=hidden;rotatable=0;points=[[0,0.5],[1,0.5]];portConstraint=eastwest;whiteSpace=wrap;html=1;" parent="wPWIn_zEP_00SwvqZCT9-172" vertex="1">
          <mxGeometry y="78" width="220" height="26" as="geometry" />
        </mxCell>
        <mxCell id="bh9HdsnnKBcZ5_Enlee--38" value="- initiated_date_time: DateTİme" style="text;strokeColor=none;fillColor=none;align=left;verticalAlign=top;spacingLeft=4;spacingRight=4;overflow=hidden;rotatable=0;points=[[0,0.5],[1,0.5]];portConstraint=eastwest;whiteSpace=wrap;html=1;" vertex="1" parent="wPWIn_zEP_00SwvqZCT9-172">
          <mxGeometry y="104" width="220" height="26" as="geometry" />
        </mxCell>
        <mxCell id="bh9HdsnnKBcZ5_Enlee--39" value="- status: String" style="text;strokeColor=none;fillColor=none;align=left;verticalAlign=top;spacingLeft=4;spacingRight=4;overflow=hidden;rotatable=0;points=[[0,0.5],[1,0.5]];portConstraint=eastwest;whiteSpace=wrap;html=1;" vertex="1" parent="wPWIn_zEP_00SwvqZCT9-172">
          <mxGeometry y="130" width="220" height="26" as="geometry" />
        </mxCell>
        <mxCell id="wPWIn_zEP_00SwvqZCT9-174" value="" style="line;strokeWidth=1;fillColor=none;align=left;verticalAlign=middle;spacingTop=-1;spacingLeft=3;spacingRight=3;rotatable=0;labelPosition=right;points=[];portConstraint=eastwest;strokeColor=inherit;" parent="wPWIn_zEP_00SwvqZCT9-172" vertex="1">
          <mxGeometry y="156" width="220" height="8" as="geometry" />
        </mxCell>
        <mxCell id="wPWIn_zEP_00SwvqZCT9-175" value="+ method(type): type" style="text;strokeColor=none;fillColor=none;align=left;verticalAlign=top;spacingLeft=4;spacingRight=4;overflow=hidden;rotatable=0;points=[[0,0.5],[1,0.5]];portConstraint=eastwest;whiteSpace=wrap;html=1;" parent="wPWIn_zEP_00SwvqZCT9-172" vertex="1">
          <mxGeometry y="164" width="220" height="26" as="geometry" />
        </mxCell>
        <mxCell id="wPWIn_zEP_00SwvqZCT9-176" value="message" style="swimlane;fontStyle=1;align=center;verticalAlign=top;childLayout=stackLayout;horizontal=1;startSize=26;horizontalStack=0;resizeParent=1;resizeParentMax=0;resizeLast=0;collapsible=1;marginBottom=0;whiteSpace=wrap;html=1;fillColor=#f8cecc;strokeColor=#b85450;swimlaneFillColor=default;rounded=0;shadow=1;glass=0;" parent="1" vertex="1">
          <mxGeometry x="-1960" y="3762" width="160" height="216" as="geometry" />
        </mxCell>
        <mxCell id="KmGQGx_kZCCmEAzRwOBp-15" value="- id: Long/String" style="text;strokeColor=none;fillColor=none;align=left;verticalAlign=top;spacingLeft=4;spacingRight=4;overflow=hidden;rotatable=0;points=[[0,0.5],[1,0.5]];portConstraint=eastwest;whiteSpace=wrap;html=1;" parent="wPWIn_zEP_00SwvqZCT9-176" vertex="1">
          <mxGeometry y="26" width="160" height="26" as="geometry" />
        </mxCell>
        <mxCell id="bh9HdsnnKBcZ5_Enlee--37" value="- chat_id: Long/String" style="text;strokeColor=none;fillColor=none;align=left;verticalAlign=top;spacingLeft=4;spacingRight=4;overflow=hidden;rotatable=0;points=[[0,0.5],[1,0.5]];portConstraint=eastwest;whiteSpace=wrap;html=1;" vertex="1" parent="wPWIn_zEP_00SwvqZCT9-176">
          <mxGeometry y="52" width="160" height="26" as="geometry" />
        </mxCell>
        <mxCell id="KmGQGx_kZCCmEAzRwOBp-18" value="- recipient_id: Long/String" style="text;strokeColor=none;fillColor=none;align=left;verticalAlign=top;spacingLeft=4;spacingRight=4;overflow=hidden;rotatable=0;points=[[0,0.5],[1,0.5]];portConstraint=eastwest;whiteSpace=wrap;html=1;" parent="wPWIn_zEP_00SwvqZCT9-176" vertex="1">
          <mxGeometry y="78" width="160" height="26" as="geometry" />
        </mxCell>
        <mxCell id="KmGQGx_kZCCmEAzRwOBp-19" value="- content: String" style="text;strokeColor=none;fillColor=none;align=left;verticalAlign=top;spacingLeft=4;spacingRight=4;overflow=hidden;rotatable=0;points=[[0,0.5],[1,0.5]];portConstraint=eastwest;whiteSpace=wrap;html=1;" parent="wPWIn_zEP_00SwvqZCT9-176" vertex="1">
          <mxGeometry y="104" width="160" height="26" as="geometry" />
        </mxCell>
        <mxCell id="KmGQGx_kZCCmEAzRwOBp-17" value="- sender_id: Long/String" style="text;strokeColor=none;fillColor=none;align=left;verticalAlign=top;spacingLeft=4;spacingRight=4;overflow=hidden;rotatable=0;points=[[0,0.5],[1,0.5]];portConstraint=eastwest;whiteSpace=wrap;html=1;" parent="wPWIn_zEP_00SwvqZCT9-176" vertex="1">
          <mxGeometry y="130" width="160" height="26" as="geometry" />
        </mxCell>
        <mxCell id="KmGQGx_kZCCmEAzRwOBp-20" value="- sent_date_time: DateTime" style="text;strokeColor=none;fillColor=none;align=left;verticalAlign=top;spacingLeft=4;spacingRight=4;overflow=hidden;rotatable=0;points=[[0,0.5],[1,0.5]];portConstraint=eastwest;whiteSpace=wrap;html=1;" parent="wPWIn_zEP_00SwvqZCT9-176" vertex="1">
          <mxGeometry y="156" width="160" height="26" as="geometry" />
        </mxCell>
        <mxCell id="wPWIn_zEP_00SwvqZCT9-178" value="" style="line;strokeWidth=1;fillColor=none;align=left;verticalAlign=middle;spacingTop=-1;spacingLeft=3;spacingRight=3;rotatable=0;labelPosition=right;points=[];portConstraint=eastwest;strokeColor=inherit;" parent="wPWIn_zEP_00SwvqZCT9-176" vertex="1">
          <mxGeometry y="182" width="160" height="8" as="geometry" />
        </mxCell>
        <mxCell id="wPWIn_zEP_00SwvqZCT9-179" value="+ method(type): type" style="text;strokeColor=none;fillColor=none;align=left;verticalAlign=top;spacingLeft=4;spacingRight=4;overflow=hidden;rotatable=0;points=[[0,0.5],[1,0.5]];portConstraint=eastwest;whiteSpace=wrap;html=1;" parent="wPWIn_zEP_00SwvqZCT9-176" vertex="1">
          <mxGeometry y="190" width="160" height="26" as="geometry" />
        </mxCell>
        <mxCell id="wPWIn_zEP_00SwvqZCT9-180" value="user_push_notification" style="swimlane;fontStyle=1;align=center;verticalAlign=top;childLayout=stackLayout;horizontal=1;startSize=26;horizontalStack=0;resizeParent=1;resizeParentMax=0;resizeLast=0;collapsible=1;marginBottom=0;whiteSpace=wrap;html=1;fillColor=#d5e8d4;strokeColor=#82b366;swimlaneFillColor=default;rounded=0;shadow=1;glass=0;" parent="1" vertex="1">
          <mxGeometry x="-2028" y="4574" width="248" height="164" as="geometry" />
        </mxCell>
        <mxCell id="SRBA08kxsxedpuSREIqK-9" value="- id: Long/String" style="text;strokeColor=none;fillColor=none;align=left;verticalAlign=top;spacingLeft=4;spacingRight=4;overflow=hidden;rotatable=0;points=[[0,0.5],[1,0.5]];portConstraint=eastwest;whiteSpace=wrap;html=1;" parent="wPWIn_zEP_00SwvqZCT9-180" vertex="1">
          <mxGeometry y="26" width="248" height="26" as="geometry" />
        </mxCell>
        <mxCell id="wPWIn_zEP_00SwvqZCT9-181" value="- user_id: Long/String" style="text;strokeColor=none;fillColor=none;align=left;verticalAlign=top;spacingLeft=4;spacingRight=4;overflow=hidden;rotatable=0;points=[[0,0.5],[1,0.5]];portConstraint=eastwest;whiteSpace=wrap;html=1;" parent="wPWIn_zEP_00SwvqZCT9-180" vertex="1">
          <mxGeometry y="52" width="248" height="26" as="geometry" />
        </mxCell>
        <mxCell id="SRBA08kxsxedpuSREIqK-11" value="- push_notification_template_id: Long/String" style="text;strokeColor=none;fillColor=none;align=left;verticalAlign=top;spacingLeft=4;spacingRight=4;overflow=hidden;rotatable=0;points=[[0,0.5],[1,0.5]];portConstraint=eastwest;whiteSpace=wrap;html=1;" parent="wPWIn_zEP_00SwvqZCT9-180" vertex="1">
          <mxGeometry y="78" width="248" height="26" as="geometry" />
        </mxCell>
        <mxCell id="bh9HdsnnKBcZ5_Enlee--46" value="- created_time: Long/String" style="text;strokeColor=none;fillColor=none;align=left;verticalAlign=top;spacingLeft=4;spacingRight=4;overflow=hidden;rotatable=0;points=[[0,0.5],[1,0.5]];portConstraint=eastwest;whiteSpace=wrap;html=1;" vertex="1" parent="wPWIn_zEP_00SwvqZCT9-180">
          <mxGeometry y="104" width="248" height="26" as="geometry" />
        </mxCell>
        <mxCell id="wPWIn_zEP_00SwvqZCT9-182" value="" style="line;strokeWidth=1;fillColor=none;align=left;verticalAlign=middle;spacingTop=-1;spacingLeft=3;spacingRight=3;rotatable=0;labelPosition=right;points=[];portConstraint=eastwest;strokeColor=inherit;" parent="wPWIn_zEP_00SwvqZCT9-180" vertex="1">
          <mxGeometry y="130" width="248" height="8" as="geometry" />
        </mxCell>
        <mxCell id="wPWIn_zEP_00SwvqZCT9-183" value="+ method(type): type" style="text;strokeColor=none;fillColor=none;align=left;verticalAlign=top;spacingLeft=4;spacingRight=4;overflow=hidden;rotatable=0;points=[[0,0.5],[1,0.5]];portConstraint=eastwest;whiteSpace=wrap;html=1;" parent="wPWIn_zEP_00SwvqZCT9-180" vertex="1">
          <mxGeometry y="138" width="248" height="26" as="geometry" />
        </mxCell>
        <mxCell id="wPWIn_zEP_00SwvqZCT9-184" value="push_notification_template" style="swimlane;fontStyle=1;align=center;verticalAlign=top;childLayout=stackLayout;horizontal=1;startSize=26;horizontalStack=0;resizeParent=1;resizeParentMax=0;resizeLast=0;collapsible=1;marginBottom=0;whiteSpace=wrap;html=1;fillColor=#d5e8d4;strokeColor=#82b366;fillStyle=auto;gradientColor=none;swimlaneFillColor=default;rounded=0;shadow=1;" parent="1" vertex="1">
          <mxGeometry x="-2290" y="4573" width="160" height="164" as="geometry" />
        </mxCell>
        <mxCell id="wPWIn_zEP_00SwvqZCT9-185" value="- id: Long/String" style="text;strokeColor=none;fillColor=none;align=left;verticalAlign=top;spacingLeft=4;spacingRight=4;overflow=hidden;rotatable=0;points=[[0,0.5],[1,0.5]];portConstraint=eastwest;whiteSpace=wrap;html=1;" parent="wPWIn_zEP_00SwvqZCT9-184" vertex="1">
          <mxGeometry y="26" width="160" height="26" as="geometry" />
        </mxCell>
        <mxCell id="SRBA08kxsxedpuSREIqK-1" value="- title: Long/String" style="text;strokeColor=none;fillColor=none;align=left;verticalAlign=top;spacingLeft=4;spacingRight=4;overflow=hidden;rotatable=0;points=[[0,0.5],[1,0.5]];portConstraint=eastwest;whiteSpace=wrap;html=1;" parent="wPWIn_zEP_00SwvqZCT9-184" vertex="1">
          <mxGeometry y="52" width="160" height="26" as="geometry" />
        </mxCell>
        <mxCell id="SRBA08kxsxedpuSREIqK-2" value="- body: Long/String" style="text;strokeColor=none;fillColor=none;align=left;verticalAlign=top;spacingLeft=4;spacingRight=4;overflow=hidden;rotatable=0;points=[[0,0.5],[1,0.5]];portConstraint=eastwest;whiteSpace=wrap;html=1;" parent="wPWIn_zEP_00SwvqZCT9-184" vertex="1">
          <mxGeometry y="78" width="160" height="26" as="geometry" />
        </mxCell>
        <mxCell id="bh9HdsnnKBcZ5_Enlee--45" value="- created_time: Long/String" style="text;strokeColor=none;fillColor=none;align=left;verticalAlign=top;spacingLeft=4;spacingRight=4;overflow=hidden;rotatable=0;points=[[0,0.5],[1,0.5]];portConstraint=eastwest;whiteSpace=wrap;html=1;" vertex="1" parent="wPWIn_zEP_00SwvqZCT9-184">
          <mxGeometry y="104" width="160" height="26" as="geometry" />
        </mxCell>
        <mxCell id="wPWIn_zEP_00SwvqZCT9-186" value="" style="line;strokeWidth=1;fillColor=none;align=left;verticalAlign=middle;spacingTop=-1;spacingLeft=3;spacingRight=3;rotatable=0;labelPosition=right;points=[];portConstraint=eastwest;strokeColor=inherit;" parent="wPWIn_zEP_00SwvqZCT9-184" vertex="1">
          <mxGeometry y="130" width="160" height="8" as="geometry" />
        </mxCell>
        <mxCell id="wPWIn_zEP_00SwvqZCT9-187" value="+ method(type): type" style="text;strokeColor=none;fillColor=none;align=left;verticalAlign=top;spacingLeft=4;spacingRight=4;overflow=hidden;rotatable=0;points=[[0,0.5],[1,0.5]];portConstraint=eastwest;whiteSpace=wrap;html=1;" parent="wPWIn_zEP_00SwvqZCT9-184" vertex="1">
          <mxGeometry y="138" width="160" height="26" as="geometry" />
        </mxCell>
        <mxCell id="wPWIn_zEP_00SwvqZCT9-196" value="user_email" style="swimlane;fontStyle=1;align=center;verticalAlign=top;childLayout=stackLayout;horizontal=1;startSize=26;horizontalStack=0;resizeParent=1;resizeParentMax=0;resizeLast=0;collapsible=1;marginBottom=0;whiteSpace=wrap;html=1;fillColor=#e1d5e7;strokeColor=#9673a6;swimlaneFillColor=default;rounded=0;shadow=1;" parent="1" vertex="1">
          <mxGeometry x="-2026" y="4770" width="196" height="164" as="geometry" />
        </mxCell>
        <mxCell id="SRBA08kxsxedpuSREIqK-10" value="- id: Long/String" style="text;strokeColor=none;fillColor=none;align=left;verticalAlign=top;spacingLeft=4;spacingRight=4;overflow=hidden;rotatable=0;points=[[0,0.5],[1,0.5]];portConstraint=eastwest;whiteSpace=wrap;html=1;" parent="wPWIn_zEP_00SwvqZCT9-196" vertex="1">
          <mxGeometry y="26" width="196" height="26" as="geometry" />
        </mxCell>
        <mxCell id="SRBA08kxsxedpuSREIqK-12" value="- email_template_id: Long/String" style="text;strokeColor=none;fillColor=none;align=left;verticalAlign=top;spacingLeft=4;spacingRight=4;overflow=hidden;rotatable=0;points=[[0,0.5],[1,0.5]];portConstraint=eastwest;whiteSpace=wrap;html=1;" parent="wPWIn_zEP_00SwvqZCT9-196" vertex="1">
          <mxGeometry y="52" width="196" height="26" as="geometry" />
        </mxCell>
        <mxCell id="SRBA08kxsxedpuSREIqK-3" value="- user_id: Long/String" style="text;strokeColor=none;fillColor=none;align=left;verticalAlign=top;spacingLeft=4;spacingRight=4;overflow=hidden;rotatable=0;points=[[0,0.5],[1,0.5]];portConstraint=eastwest;whiteSpace=wrap;html=1;" parent="wPWIn_zEP_00SwvqZCT9-196" vertex="1">
          <mxGeometry y="78" width="196" height="26" as="geometry" />
        </mxCell>
        <mxCell id="bh9HdsnnKBcZ5_Enlee--47" value="- created_time: Long/String" style="text;strokeColor=none;fillColor=none;align=left;verticalAlign=top;spacingLeft=4;spacingRight=4;overflow=hidden;rotatable=0;points=[[0,0.5],[1,0.5]];portConstraint=eastwest;whiteSpace=wrap;html=1;" vertex="1" parent="wPWIn_zEP_00SwvqZCT9-196">
          <mxGeometry y="104" width="196" height="26" as="geometry" />
        </mxCell>
        <mxCell id="wPWIn_zEP_00SwvqZCT9-198" value="" style="line;strokeWidth=1;fillColor=none;align=left;verticalAlign=middle;spacingTop=-1;spacingLeft=3;spacingRight=3;rotatable=0;labelPosition=right;points=[];portConstraint=eastwest;strokeColor=inherit;" parent="wPWIn_zEP_00SwvqZCT9-196" vertex="1">
          <mxGeometry y="130" width="196" height="8" as="geometry" />
        </mxCell>
        <mxCell id="wPWIn_zEP_00SwvqZCT9-199" value="+ method(type): type" style="text;strokeColor=none;fillColor=none;align=left;verticalAlign=top;spacingLeft=4;spacingRight=4;overflow=hidden;rotatable=0;points=[[0,0.5],[1,0.5]];portConstraint=eastwest;whiteSpace=wrap;html=1;" parent="wPWIn_zEP_00SwvqZCT9-196" vertex="1">
          <mxGeometry y="138" width="196" height="26" as="geometry" />
        </mxCell>
        <mxCell id="wPWIn_zEP_00SwvqZCT9-200" value="email_template" style="swimlane;fontStyle=1;align=center;verticalAlign=top;childLayout=stackLayout;horizontal=1;startSize=26;horizontalStack=0;resizeParent=1;resizeParentMax=0;resizeLast=0;collapsible=1;marginBottom=0;whiteSpace=wrap;html=1;fillColor=#e1d5e7;strokeColor=#9673a6;swimlaneFillColor=default;gradientColor=none;shadow=1;rounded=0;" parent="1" vertex="1">
          <mxGeometry x="-2288" y="4770" width="160" height="164" as="geometry" />
        </mxCell>
        <mxCell id="SRBA08kxsxedpuSREIqK-4" value="- id: Long/String" style="text;strokeColor=none;fillColor=none;align=left;verticalAlign=top;spacingLeft=4;spacingRight=4;overflow=hidden;rotatable=0;points=[[0,0.5],[1,0.5]];portConstraint=eastwest;whiteSpace=wrap;html=1;" parent="wPWIn_zEP_00SwvqZCT9-200" vertex="1">
          <mxGeometry y="26" width="160" height="26" as="geometry" />
        </mxCell>
        <mxCell id="SRBA08kxsxedpuSREIqK-6" value="- body: Long/String" style="text;strokeColor=none;fillColor=none;align=left;verticalAlign=top;spacingLeft=4;spacingRight=4;overflow=hidden;rotatable=0;points=[[0,0.5],[1,0.5]];portConstraint=eastwest;whiteSpace=wrap;html=1;" parent="wPWIn_zEP_00SwvqZCT9-200" vertex="1">
          <mxGeometry y="52" width="160" height="26" as="geometry" />
        </mxCell>
        <mxCell id="SRBA08kxsxedpuSREIqK-5" value="- subject: Long/String" style="text;strokeColor=none;fillColor=none;align=left;verticalAlign=top;spacingLeft=4;spacingRight=4;overflow=hidden;rotatable=0;points=[[0,0.5],[1,0.5]];portConstraint=eastwest;whiteSpace=wrap;html=1;" parent="wPWIn_zEP_00SwvqZCT9-200" vertex="1">
          <mxGeometry y="78" width="160" height="26" as="geometry" />
        </mxCell>
        <mxCell id="bh9HdsnnKBcZ5_Enlee--44" value="- created_time: Long/String" style="text;strokeColor=none;fillColor=none;align=left;verticalAlign=top;spacingLeft=4;spacingRight=4;overflow=hidden;rotatable=0;points=[[0,0.5],[1,0.5]];portConstraint=eastwest;whiteSpace=wrap;html=1;" vertex="1" parent="wPWIn_zEP_00SwvqZCT9-200">
          <mxGeometry y="104" width="160" height="26" as="geometry" />
        </mxCell>
        <mxCell id="wPWIn_zEP_00SwvqZCT9-202" value="" style="line;strokeWidth=1;fillColor=none;align=left;verticalAlign=middle;spacingTop=-1;spacingLeft=3;spacingRight=3;rotatable=0;labelPosition=right;points=[];portConstraint=eastwest;strokeColor=inherit;" parent="wPWIn_zEP_00SwvqZCT9-200" vertex="1">
          <mxGeometry y="130" width="160" height="8" as="geometry" />
        </mxCell>
        <mxCell id="wPWIn_zEP_00SwvqZCT9-203" value="+ method(type): type" style="text;strokeColor=none;fillColor=none;align=left;verticalAlign=top;spacingLeft=4;spacingRight=4;overflow=hidden;rotatable=0;points=[[0,0.5],[1,0.5]];portConstraint=eastwest;whiteSpace=wrap;html=1;" parent="wPWIn_zEP_00SwvqZCT9-200" vertex="1">
          <mxGeometry y="138" width="160" height="26" as="geometry" />
        </mxCell>
        <mxCell id="bh9HdsnnKBcZ5_Enlee--11" style="edgeStyle=orthogonalEdgeStyle;rounded=0;orthogonalLoop=1;jettySize=auto;html=1;entryX=0.5;entryY=0;entryDx=0;entryDy=0;" edge="1" parent="1" source="wPWIn_zEP_00SwvqZCT9-212" target="bh9HdsnnKBcZ5_Enlee--7">
          <mxGeometry relative="1" as="geometry" />
        </mxCell>
        <mxCell id="wPWIn_zEP_00SwvqZCT9-212" value="matching_preference" style="swimlane;fontStyle=1;align=center;verticalAlign=top;childLayout=stackLayout;horizontal=1;startSize=26;horizontalStack=0;resizeParent=1;resizeParentMax=0;resizeLast=0;collapsible=1;marginBottom=0;whiteSpace=wrap;html=1;fillColor=#fad9d5;strokeColor=#ae4132;rounded=0;shadow=1;swimlaneFillColor=default;" parent="1" vertex="1">
          <mxGeometry x="-1820" y="5120" width="160" height="86" as="geometry" />
        </mxCell>
        <mxCell id="wPWIn_zEP_00SwvqZCT9-213" value="+ id: type" style="text;strokeColor=none;fillColor=none;align=left;verticalAlign=top;spacingLeft=4;spacingRight=4;overflow=hidden;rotatable=0;points=[[0,0.5],[1,0.5]];portConstraint=eastwest;whiteSpace=wrap;html=1;" parent="wPWIn_zEP_00SwvqZCT9-212" vertex="1">
          <mxGeometry y="26" width="160" height="26" as="geometry" />
        </mxCell>
        <mxCell id="wPWIn_zEP_00SwvqZCT9-214" value="" style="line;strokeWidth=1;fillColor=none;align=left;verticalAlign=middle;spacingTop=-1;spacingLeft=3;spacingRight=3;rotatable=0;labelPosition=right;points=[];portConstraint=eastwest;strokeColor=inherit;" parent="wPWIn_zEP_00SwvqZCT9-212" vertex="1">
          <mxGeometry y="52" width="160" height="8" as="geometry" />
        </mxCell>
        <mxCell id="wPWIn_zEP_00SwvqZCT9-215" value="+ method(type): type" style="text;strokeColor=none;fillColor=none;align=left;verticalAlign=top;spacingLeft=4;spacingRight=4;overflow=hidden;rotatable=0;points=[[0,0.5],[1,0.5]];portConstraint=eastwest;whiteSpace=wrap;html=1;" parent="wPWIn_zEP_00SwvqZCT9-212" vertex="1">
          <mxGeometry y="60" width="160" height="26" as="geometry" />
        </mxCell>
        <mxCell id="wPWIn_zEP_00SwvqZCT9-220" value="&lt;p style=&quot;margin:0px;margin-top:4px;text-align:center;&quot;&gt;&lt;i&gt;&amp;lt;&amp;lt;enum&amp;gt;&amp;gt;&lt;/i&gt;&lt;br&gt;&lt;b&gt;UserStateless&lt;/b&gt;&lt;/p&gt;&lt;hr size=&quot;1&quot; style=&quot;border-style:solid;&quot;&gt;&lt;p style=&quot;margin:0px;margin-left:4px;&quot;&gt;ACTIVE,&lt;/p&gt;&lt;p style=&quot;margin:0px;margin-left:4px;&quot;&gt;INACTIVE,&amp;nbsp;&lt;/p&gt;&lt;p style=&quot;margin:0px;margin-left:4px;&quot;&gt;SUSPENDED,&amp;nbsp;&lt;/p&gt;&lt;p style=&quot;margin:0px;margin-left:4px;&quot;&gt;PENDING&lt;br&gt;&lt;/p&gt;&lt;p style=&quot;margin:0px;margin-left:4px;&quot;&gt;&lt;br&gt;&lt;/p&gt;" style="verticalAlign=top;align=left;overflow=fill;html=1;whiteSpace=wrap;points=[[0,0,0,0,0],[0,0.25,0,0,0],[0,0.5,0,0,0],[0,0.75,0,0,0],[0,1,0,0,0],[0.25,0,0,0,0],[0.25,1,0,0,0],[0.5,0,0,0,0],[0.5,1,0,0,0],[0.75,0,0,0,0],[0.75,1,0,0,0],[1,0,0,0,0],[1,0.25,0,0,0],[1,0.5,0,0,0],[1,0.75,0,0,0],[1,1,0,0,0]];fillColor=#f8cecc;strokeColor=#b85450;" parent="1" vertex="1">
          <mxGeometry x="-1419.5" y="4655" width="115" height="110" as="geometry" />
        </mxCell>
        <mxCell id="wPWIn_zEP_00SwvqZCT9-221" value="" style="endArrow=none;html=1;rounded=0;entryX=1;entryY=0.25;entryDx=0;entryDy=0;entryPerimeter=0;exitX=0;exitY=0.5;exitDx=0;exitDy=0;edgeStyle=orthogonalEdgeStyle;" parent="1" source="wPWIn_zEP_00SwvqZCT9-219" target="wPWIn_zEP_00SwvqZCT9-220" edge="1">
          <mxGeometry width="50" height="50" relative="1" as="geometry">
            <mxPoint x="-1410" y="4740" as="sourcePoint" />
            <mxPoint x="-1360" y="4690" as="targetPoint" />
          </mxGeometry>
        </mxCell>
        <mxCell id="wPWIn_zEP_00SwvqZCT9-224" value="&lt;p style=&quot;margin:0px;margin-top:4px;text-align:center;&quot;&gt;&lt;i&gt;&amp;lt;&amp;lt;enum&amp;gt;&amp;gt;&lt;/i&gt;&lt;br&gt;&lt;b&gt;DeviceType&lt;/b&gt;&lt;/p&gt;&lt;hr size=&quot;1&quot; style=&quot;border-style:solid;&quot;&gt;&lt;p style=&quot;margin:0px;margin-left:4px;&quot;&gt;mobile,&lt;/p&gt;&lt;p style=&quot;margin:0px;margin-left:4px;&quot;&gt;web&lt;/p&gt;" style="verticalAlign=top;align=left;overflow=fill;html=1;whiteSpace=wrap;points=[[0,0,0,0,0],[0,0.25,0,0,0],[0,0.5,0,0,0],[0,0.75,0,0,0],[0,1,0,0,0],[0.25,0,0,0,0],[0.25,1,0,0,0],[0.5,0,0,0,0],[0.5,1,0,0,0],[0.75,0,0,0,0],[0.75,1,0,0,0],[1,0,0,0,0],[1,0.25,0,0,0],[1,0.5,0,0,0],[1,0.75,0,0,0],[1,1,0,0,0]];fillColor=#f8cecc;strokeColor=#b85450;" parent="1" vertex="1">
          <mxGeometry x="-2300" y="5078" width="135" height="80" as="geometry" />
        </mxCell>
        <mxCell id="wPWIn_zEP_00SwvqZCT9-225" value="" style="endArrow=none;html=1;rounded=0;entryX=0;entryY=0.5;entryDx=0;entryDy=0;exitX=1.001;exitY=0.392;exitDx=0;exitDy=0;exitPerimeter=0;edgeStyle=orthogonalEdgeStyle;" parent="1" source="wPWIn_zEP_00SwvqZCT9-224" target="wPWIn_zEP_00SwvqZCT9-223" edge="1">
          <mxGeometry width="50" height="50" relative="1" as="geometry">
            <mxPoint x="-2130" y="5010" as="sourcePoint" />
            <mxPoint x="-2080" y="4960" as="targetPoint" />
          </mxGeometry>
        </mxCell>
        <mxCell id="wPWIn_zEP_00SwvqZCT9-229" value="&lt;p style=&quot;margin:0px;margin-top:4px;text-align:center;&quot;&gt;&lt;i&gt;&amp;lt;&amp;lt;enum&amp;gt;&amp;gt;&lt;/i&gt;&lt;br&gt;&lt;b&gt;UserType&lt;/b&gt;&lt;/p&gt;&lt;hr size=&quot;1&quot; style=&quot;border-style:solid;&quot;&gt;&lt;p style=&quot;margin:0px;margin-left:4px;&quot;&gt;admin,&lt;/p&gt;&lt;p style=&quot;margin:0px;margin-left:4px;&quot;&gt;user&lt;/p&gt;" style="verticalAlign=top;align=left;overflow=fill;html=1;whiteSpace=wrap;points=[[0,0,0,0,0],[0,0.25,0,0,0],[0,0.5,0,0,0],[0,0.75,0,0,0],[0,1,0,0,0],[0.25,0,0,0,0],[0.25,1,0,0,0],[0.5,0,0,0,0],[0.5,1,0,0,0],[0.75,0,0,0,0],[0.75,1,0,0,0],[1,0,0,0,0],[1,0.25,0,0,0],[1,0.5,0,0,0],[1,0.75,0,0,0],[1,1,0,0,0]];fillColor=#f8cecc;strokeColor=#b85450;" parent="1" vertex="1">
          <mxGeometry x="-2277.5" y="4965" width="135" height="80" as="geometry" />
        </mxCell>
        <mxCell id="wPWIn_zEP_00SwvqZCT9-230" value="" style="endArrow=none;html=1;rounded=0;entryX=0;entryY=0.5;entryDx=0;entryDy=0;edgeStyle=orthogonalEdgeStyle;exitX=1;exitY=0.25;exitDx=0;exitDy=0;exitPerimeter=0;" parent="1" source="wPWIn_zEP_00SwvqZCT9-229" target="wPWIn_zEP_00SwvqZCT9-226" edge="1">
          <mxGeometry width="50" height="50" relative="1" as="geometry">
            <mxPoint x="-2135" y="4910" as="sourcePoint" />
            <mxPoint x="-2100" y="5020" as="targetPoint" />
            <Array as="points">
              <mxPoint x="-2110" y="4985" />
              <mxPoint x="-2110" y="5123" />
            </Array>
          </mxGeometry>
        </mxCell>
        <mxCell id="wPWIn_zEP_00SwvqZCT9-232" value="&lt;p style=&quot;margin:0px;margin-top:4px;text-align:center;&quot;&gt;&lt;i&gt;&amp;lt;&amp;lt;enum&amp;gt;&amp;gt;&lt;/i&gt;&lt;br&gt;&lt;b&gt;UserStatus&lt;/b&gt;&lt;/p&gt;&lt;hr size=&quot;1&quot; style=&quot;border-style:solid;&quot;&gt;&lt;p style=&quot;margin:0px;margin-left:4px;&quot;&gt;ONLINE,&lt;/p&gt;&lt;p style=&quot;margin:0px;margin-left:4px;&quot;&gt;OFFLINE&lt;/p&gt;" style="verticalAlign=top;align=left;overflow=fill;html=1;whiteSpace=wrap;points=[[0,0,0,0,0],[0,0.25,0,0,0],[0,0.5,0,0,0],[0,0.75,0,0,0],[0,1,0,0,0],[0.25,0,0,0,0],[0.25,1,0,0,0],[0.5,0,0,0,0],[0.5,1,0,0,0],[0.75,0,0,0,0],[0.75,1,0,0,0],[1,0,0,0,0],[1,0.25,0,0,0],[1,0.5,0,0,0],[1,0.75,0,0,0],[1,1,0,0,0]];fillColor=#f8cecc;strokeColor=#b85450;" parent="1" vertex="1">
          <mxGeometry x="-1040" y="4689" width="80" height="80" as="geometry" />
        </mxCell>
        <mxCell id="wPWIn_zEP_00SwvqZCT9-233" value="" style="endArrow=none;html=1;rounded=0;exitX=1;exitY=0.5;exitDx=0;exitDy=0;entryX=0;entryY=0.25;entryDx=0;entryDy=0;entryPerimeter=0;edgeStyle=orthogonalEdgeStyle;" parent="1" source="wPWIn_zEP_00SwvqZCT9-231" target="wPWIn_zEP_00SwvqZCT9-232" edge="1">
          <mxGeometry width="50" height="50" relative="1" as="geometry">
            <mxPoint x="-1040" y="4600" as="sourcePoint" />
            <mxPoint x="-990" y="4550" as="targetPoint" />
          </mxGeometry>
        </mxCell>
        <mxCell id="wPWIn_zEP_00SwvqZCT9-234" value="admin_user" style="swimlane;fontStyle=1;align=center;verticalAlign=top;childLayout=stackLayout;horizontal=1;startSize=26;horizontalStack=0;resizeParent=1;resizeParentMax=0;resizeLast=0;collapsible=1;marginBottom=0;whiteSpace=wrap;html=1;fillColor=#dae8fc;strokeColor=#6c8ebf;shadow=1;swimlaneFillColor=default;rounded=0;" parent="1" vertex="1">
          <mxGeometry x="-2710" y="5150" width="275" height="435" as="geometry" />
        </mxCell>
        <mxCell id="wPWIn_zEP_00SwvqZCT9-235" value="- id: Long/String" style="text;strokeColor=none;fillColor=none;align=left;verticalAlign=top;spacingLeft=4;spacingRight=4;overflow=hidden;rotatable=0;points=[[0,0.5],[1,0.5]];portConstraint=eastwest;whiteSpace=wrap;html=1;" parent="wPWIn_zEP_00SwvqZCT9-234" vertex="1">
          <mxGeometry y="26" width="275" height="26" as="geometry" />
        </mxCell>
        <mxCell id="wPWIn_zEP_00SwvqZCT9-236" value="- email: String" style="text;strokeColor=none;fillColor=#f5f5f5;align=left;verticalAlign=top;spacingLeft=4;spacingRight=4;overflow=hidden;rotatable=0;points=[[0,0.5],[1,0.5]];portConstraint=eastwest;fontColor=#000000;whiteSpace=wrap;html=1;textShadow=0;labelBorderColor=none;labelBackgroundColor=none;perimeterSpacing=0;rounded=0;" parent="wPWIn_zEP_00SwvqZCT9-234" vertex="1">
          <mxGeometry y="52" width="275" height="27" as="geometry" />
        </mxCell>
        <mxCell id="wPWIn_zEP_00SwvqZCT9-237" value="- user_stateless: UserStateless" style="text;strokeColor=none;fillColor=#f5f5f5;align=left;verticalAlign=top;spacingLeft=4;spacingRight=4;overflow=hidden;rotatable=0;points=[[0,0.5],[1,0.5]];portConstraint=eastwest;fontColor=#000000;whiteSpace=wrap;html=1;textShadow=0;labelBorderColor=none;labelBackgroundColor=none;perimeterSpacing=0;rounded=0;" parent="wPWIn_zEP_00SwvqZCT9-234" vertex="1">
          <mxGeometry y="79" width="275" height="27" as="geometry" />
        </mxCell>
        <mxCell id="lUCr0uX9j98xc51VkzF5-14" value="- registered_provider_id: String" style="text;strokeColor=none;fillColor=none;align=left;verticalAlign=top;spacingLeft=4;spacingRight=4;overflow=hidden;points=[[0,0.5],[1,0.5]];portConstraint=eastwest;rotatable=0;whiteSpace=wrap;html=1;" parent="wPWIn_zEP_00SwvqZCT9-234" vertex="1">
          <mxGeometry y="106" width="275" height="30" as="geometry" />
        </mxCell>
        <mxCell id="lUCr0uX9j98xc51VkzF5-15" value="- registered_provider_name:&amp;nbsp;&lt;span style=&quot;text-align: center;&quot;&gt;AuthProviderId&lt;/span&gt;&lt;div&gt;&lt;b style=&quot;text-align: center;&quot;&gt;&lt;br&gt;&lt;/b&gt;&lt;/div&gt;" style="text;strokeColor=none;fillColor=#f5f5f5;align=left;verticalAlign=top;spacingLeft=4;spacingRight=4;overflow=hidden;points=[[0,0.5],[1,0.5]];portConstraint=eastwest;rotatable=0;whiteSpace=wrap;html=1;fontColor=#000000;" parent="wPWIn_zEP_00SwvqZCT9-234" vertex="1">
          <mxGeometry y="136" width="275" height="30" as="geometry" />
        </mxCell>
        <mxCell id="wPWIn_zEP_00SwvqZCT9-238" value="- user_status: UserStatus" style="text;strokeColor=none;fillColor=#f5f5f5;align=left;verticalAlign=top;spacingLeft=4;spacingRight=4;overflow=hidden;rotatable=0;points=[[0,0.5],[1,0.5]];portConstraint=eastwest;fontColor=#000000;whiteSpace=wrap;html=1;textShadow=0;labelBorderColor=none;labelBackgroundColor=none;perimeterSpacing=0;rounded=0;" parent="wPWIn_zEP_00SwvqZCT9-234" vertex="1">
          <mxGeometry y="166" width="275" height="27" as="geometry" />
        </mxCell>
        <mxCell id="wPWIn_zEP_00SwvqZCT9-239" value="- password: String" style="text;strokeColor=none;fillColor=none;align=left;verticalAlign=top;spacingLeft=4;spacingRight=4;overflow=hidden;rotatable=0;points=[[0,0.5],[1,0.5]];portConstraint=eastwest;whiteSpace=wrap;html=1;" parent="wPWIn_zEP_00SwvqZCT9-234" vertex="1">
          <mxGeometry y="193" width="275" height="26" as="geometry" />
        </mxCell>
        <mxCell id="wPWIn_zEP_00SwvqZCT9-240" value="- username: String" style="text;strokeColor=none;fillColor=#f5f5f5;align=left;verticalAlign=top;spacingLeft=4;spacingRight=4;overflow=hidden;rotatable=0;points=[[0,0.5],[1,0.5]];portConstraint=eastwest;whiteSpace=wrap;html=1;fontColor=#000000;" parent="wPWIn_zEP_00SwvqZCT9-234" vertex="1">
          <mxGeometry y="219" width="275" height="26" as="geometry" />
        </mxCell>
        <mxCell id="wPWIn_zEP_00SwvqZCT9-241" value="- first_name: String" style="text;strokeColor=none;fillColor=none;align=left;verticalAlign=top;spacingLeft=4;spacingRight=4;overflow=hidden;rotatable=0;points=[[0,0.5],[1,0.5]];portConstraint=eastwest;whiteSpace=wrap;html=1;" parent="wPWIn_zEP_00SwvqZCT9-234" vertex="1">
          <mxGeometry y="245" width="275" height="26" as="geometry" />
        </mxCell>
        <mxCell id="wPWIn_zEP_00SwvqZCT9-242" value="- last_name: String" style="text;strokeColor=none;fillColor=#f5f5f5;align=left;verticalAlign=top;spacingLeft=4;spacingRight=4;overflow=hidden;rotatable=0;points=[[0,0.5],[1,0.5]];portConstraint=eastwest;whiteSpace=wrap;html=1;fontColor=#000000;" parent="wPWIn_zEP_00SwvqZCT9-234" vertex="1">
          <mxGeometry y="271" width="275" height="26" as="geometry" />
        </mxCell>
        <mxCell id="wPWIn_zEP_00SwvqZCT9-243" value="- phone_number: String" style="text;strokeColor=none;fillColor=none;align=left;verticalAlign=top;spacingLeft=4;spacingRight=4;overflow=hidden;rotatable=0;points=[[0,0.5],[1,0.5]];portConstraint=eastwest;whiteSpace=wrap;html=1;" parent="wPWIn_zEP_00SwvqZCT9-234" vertex="1">
          <mxGeometry y="297" width="275" height="26" as="geometry" />
        </mxCell>
        <mxCell id="wPWIn_zEP_00SwvqZCT9-244" value="- image_url: String" style="text;strokeColor=none;fillColor=#f5f5f5;align=left;verticalAlign=top;spacingLeft=4;spacingRight=4;overflow=hidden;rotatable=0;points=[[0,0.5],[1,0.5]];portConstraint=eastwest;whiteSpace=wrap;html=1;fontColor=#000000;" parent="wPWIn_zEP_00SwvqZCT9-234" vertex="1">
          <mxGeometry y="323" width="275" height="26" as="geometry" />
        </mxCell>
        <mxCell id="wPWIn_zEP_00SwvqZCT9-245" value="- created_at: String" style="text;strokeColor=none;fillColor=#f5f5f5;align=left;verticalAlign=top;spacingLeft=4;spacingRight=4;overflow=hidden;rotatable=0;points=[[0,0.5],[1,0.5]];portConstraint=eastwest;whiteSpace=wrap;html=1;fontColor=#000000;" parent="wPWIn_zEP_00SwvqZCT9-234" vertex="1">
          <mxGeometry y="349" width="275" height="26" as="geometry" />
        </mxCell>
        <mxCell id="wPWIn_zEP_00SwvqZCT9-246" value="- updated_at: String" style="text;strokeColor=none;fillColor=#f5f5f5;align=left;verticalAlign=top;spacingLeft=4;spacingRight=4;overflow=hidden;rotatable=0;points=[[0,0.5],[1,0.5]];portConstraint=eastwest;whiteSpace=wrap;html=1;fontColor=#000000;" parent="wPWIn_zEP_00SwvqZCT9-234" vertex="1">
          <mxGeometry y="375" width="275" height="26" as="geometry" />
        </mxCell>
        <mxCell id="wPWIn_zEP_00SwvqZCT9-247" value="" style="line;strokeWidth=1;fillColor=none;align=left;verticalAlign=middle;spacingTop=-1;spacingLeft=3;spacingRight=3;rotatable=0;labelPosition=right;points=[];portConstraint=eastwest;strokeColor=inherit;" parent="wPWIn_zEP_00SwvqZCT9-234" vertex="1">
          <mxGeometry y="401" width="275" height="8" as="geometry" />
        </mxCell>
        <mxCell id="wPWIn_zEP_00SwvqZCT9-248" value="+ method(type): type" style="text;strokeColor=none;fillColor=none;align=left;verticalAlign=top;spacingLeft=4;spacingRight=4;overflow=hidden;rotatable=0;points=[[0,0.5],[1,0.5]];portConstraint=eastwest;whiteSpace=wrap;html=1;" parent="wPWIn_zEP_00SwvqZCT9-234" vertex="1">
          <mxGeometry y="409" width="275" height="26" as="geometry" />
        </mxCell>
        <mxCell id="wPWIn_zEP_00SwvqZCT9-250" value="" style="endArrow=none;html=1;rounded=0;entryX=0.423;entryY=0.976;entryDx=0;entryDy=0;entryPerimeter=0;exitX=0;exitY=0.5;exitDx=0;exitDy=0;" parent="1" source="lUCr0uX9j98xc51VkzF5-32" target="wPWIn_zEP_00SwvqZCT9-167" edge="1">
          <mxGeometry width="50" height="50" relative="1" as="geometry">
            <mxPoint x="-1620" y="4260" as="sourcePoint" />
            <mxPoint x="-1570" y="4210" as="targetPoint" />
            <Array as="points">
              <mxPoint x="-1442" y="4226" />
            </Array>
          </mxGeometry>
        </mxCell>
        <mxCell id="wPWIn_zEP_00SwvqZCT9-251" value="" style="endArrow=none;html=1;rounded=0;entryX=0;entryY=0.5;entryDx=0;entryDy=0;exitX=0.462;exitY=-0.013;exitDx=0;exitDy=0;exitPerimeter=0;" parent="1" source="wPWIn_zEP_00SwvqZCT9-164" target="bh9HdsnnKBcZ5_Enlee--20" edge="1">
          <mxGeometry width="50" height="50" relative="1" as="geometry">
            <mxPoint x="-1540" y="4050" as="sourcePoint" />
            <mxPoint x="-1490" y="4000" as="targetPoint" />
            <Array as="points">
              <mxPoint x="-1436" y="3800" />
            </Array>
          </mxGeometry>
        </mxCell>
        <mxCell id="wPWIn_zEP_00SwvqZCT9-252" value="" style="endArrow=none;html=1;rounded=0;entryX=0.891;entryY=-0.003;entryDx=0;entryDy=0;entryPerimeter=0;exitX=1;exitY=0.5;exitDx=0;exitDy=0;" parent="1" source="bh9HdsnnKBcZ5_Enlee--20" target="wPWIn_zEP_00SwvqZCT9-10" edge="1">
          <mxGeometry width="50" height="50" relative="1" as="geometry">
            <mxPoint x="-960" y="3800" as="sourcePoint" />
            <mxPoint x="-790" y="4420" as="targetPoint" />
            <Array as="points">
              <mxPoint x="-1080" y="3799" />
            </Array>
          </mxGeometry>
        </mxCell>
        <mxCell id="wPWIn_zEP_00SwvqZCT9-253" value="" style="endArrow=none;html=1;rounded=0;entryX=1;entryY=0.5;entryDx=0;entryDy=0;exitX=0.5;exitY=0;exitDx=0;exitDy=0;" parent="1" source="wPWIn_zEP_00SwvqZCT9-94" target="lUCr0uX9j98xc51VkzF5-32" edge="1">
          <mxGeometry width="50" height="50" relative="1" as="geometry">
            <mxPoint x="-1200" y="4450" as="sourcePoint" />
            <mxPoint x="-1170" y="4190" as="targetPoint" />
            <Array as="points">
              <mxPoint x="-340" y="4070" />
              <mxPoint x="-1120" y="4226" />
            </Array>
          </mxGeometry>
        </mxCell>
        <mxCell id="wPWIn_zEP_00SwvqZCT9-254" value="" style="endArrow=none;html=1;rounded=0;entryX=0.492;entryY=0.983;entryDx=0;entryDy=0;entryPerimeter=0;" parent="1" source="wPWIn_zEP_00SwvqZCT9-172" target="wPWIn_zEP_00SwvqZCT9-179" edge="1">
          <mxGeometry width="50" height="50" relative="1" as="geometry">
            <mxPoint x="-1920" y="4030" as="sourcePoint" />
            <mxPoint x="-1880" y="3970" as="targetPoint" />
          </mxGeometry>
        </mxCell>
        <mxCell id="wPWIn_zEP_00SwvqZCT9-255" value="" style="endArrow=none;html=1;rounded=0;exitX=1;exitY=0.5;exitDx=0;exitDy=0;entryX=0.5;entryY=0;entryDx=0;entryDy=0;" parent="1" target="wPWIn_zEP_00SwvqZCT9-10" edge="1">
          <mxGeometry width="50" height="50" relative="1" as="geometry">
            <mxPoint x="-1800" y="3801" as="sourcePoint" />
            <mxPoint x="-1720" y="4020" as="targetPoint" />
            <Array as="points">
              <mxPoint x="-1560" y="3800" />
              <mxPoint x="-1560" y="4400" />
              <mxPoint x="-1520" y="4400" />
              <mxPoint x="-1157" y="4400" />
            </Array>
          </mxGeometry>
        </mxCell>
        <mxCell id="wPWIn_zEP_00SwvqZCT9-256" value="" style="endArrow=none;html=1;rounded=0;exitX=1;exitY=0.5;exitDx=0;exitDy=0;" parent="1" edge="1">
          <mxGeometry width="50" height="50" relative="1" as="geometry">
            <mxPoint x="-1800" y="4110" as="sourcePoint" />
            <mxPoint x="-1200" y="4590" as="targetPoint" />
            <Array as="points">
              <mxPoint x="-1600" y="4110" />
              <mxPoint x="-1600" y="4480" />
              <mxPoint x="-1200" y="4480" />
              <mxPoint x="-1200" y="4591" />
            </Array>
          </mxGeometry>
        </mxCell>
        <mxCell id="wPWIn_zEP_00SwvqZCT9-257" value="Image" style="swimlane;fontStyle=1;align=center;verticalAlign=top;childLayout=stackLayout;horizontal=1;startSize=26;horizontalStack=0;resizeParent=1;resizeParentMax=0;resizeLast=0;collapsible=1;marginBottom=0;whiteSpace=wrap;html=1;fillColor=#647687;fontColor=#ffffff;strokeColor=default;shadow=1;swimlaneFillColor=none;rounded=0;" parent="1" vertex="1">
          <mxGeometry x="190" y="5338" width="210" height="216" as="geometry" />
        </mxCell>
        <mxCell id="wPWIn_zEP_00SwvqZCT9-258" value="- id: Long/String" style="text;strokeColor=none;fillColor=none;align=left;verticalAlign=top;spacingLeft=4;spacingRight=4;overflow=hidden;rotatable=0;points=[[0,0.5],[1,0.5]];portConstraint=eastwest;whiteSpace=wrap;html=1;" parent="wPWIn_zEP_00SwvqZCT9-257" vertex="1">
          <mxGeometry y="26" width="210" height="26" as="geometry" />
        </mxCell>
        <mxCell id="wPWIn_zEP_00SwvqZCT9-259" value="- product_id: String" style="text;align=left;verticalAlign=top;spacingLeft=4;spacingRight=4;overflow=hidden;rotatable=0;points=[[0,0.5],[1,0.5]];portConstraint=eastwest;whiteSpace=wrap;html=1;fillColor=#f5f5f5;fontColor=#000000;strokeColor=none;" parent="wPWIn_zEP_00SwvqZCT9-257" vertex="1">
          <mxGeometry y="52" width="210" height="26" as="geometry" />
        </mxCell>
        <mxCell id="wPWIn_zEP_00SwvqZCT9-260" value="- order_number: int(auto_increment)" style="text;align=left;verticalAlign=top;spacingLeft=4;spacingRight=4;overflow=hidden;rotatable=0;points=[[0,0.5],[1,0.5]];portConstraint=eastwest;whiteSpace=wrap;html=1;" parent="wPWIn_zEP_00SwvqZCT9-257" vertex="1">
          <mxGeometry y="78" width="210" height="26" as="geometry" />
        </mxCell>
        <mxCell id="wPWIn_zEP_00SwvqZCT9-261" value="- url: String" style="text;align=left;verticalAlign=top;spacingLeft=4;spacingRight=4;overflow=hidden;rotatable=0;points=[[0,0.5],[1,0.5]];portConstraint=eastwest;whiteSpace=wrap;html=1;fillColor=#f5f5f5;fontColor=#000000;strokeColor=none;" parent="wPWIn_zEP_00SwvqZCT9-257" vertex="1">
          <mxGeometry y="104" width="210" height="26" as="geometry" />
        </mxCell>
        <mxCell id="wPWIn_zEP_00SwvqZCT9-265" value="-created_at: Date" style="text;align=left;verticalAlign=top;spacingLeft=4;spacingRight=4;overflow=hidden;rotatable=0;points=[[0,0.5],[1,0.5]];portConstraint=eastwest;whiteSpace=wrap;html=1;" parent="wPWIn_zEP_00SwvqZCT9-257" vertex="1">
          <mxGeometry y="130" width="210" height="26" as="geometry" />
        </mxCell>
        <mxCell id="wPWIn_zEP_00SwvqZCT9-266" value="- updated_at: Date" style="text;align=left;verticalAlign=top;spacingLeft=4;spacingRight=4;overflow=hidden;rotatable=0;points=[[0,0.5],[1,0.5]];portConstraint=eastwest;whiteSpace=wrap;html=1;fillColor=#f5f5f5;fontColor=#000000;strokeColor=none;" parent="wPWIn_zEP_00SwvqZCT9-257" vertex="1">
          <mxGeometry y="156" width="210" height="26" as="geometry" />
        </mxCell>
        <mxCell id="wPWIn_zEP_00SwvqZCT9-263" value="" style="line;strokeWidth=1;fillColor=none;align=left;verticalAlign=middle;spacingTop=-1;spacingLeft=3;spacingRight=3;rotatable=0;labelPosition=right;points=[];portConstraint=eastwest;strokeColor=inherit;" parent="wPWIn_zEP_00SwvqZCT9-257" vertex="1">
          <mxGeometry y="182" width="210" height="8" as="geometry" />
        </mxCell>
        <mxCell id="wPWIn_zEP_00SwvqZCT9-264" value="+ method(type): type" style="text;strokeColor=none;fillColor=none;align=left;verticalAlign=top;spacingLeft=4;spacingRight=4;overflow=hidden;rotatable=0;points=[[0,0.5],[1,0.5]];portConstraint=eastwest;whiteSpace=wrap;html=1;" parent="wPWIn_zEP_00SwvqZCT9-257" vertex="1">
          <mxGeometry y="190" width="210" height="26" as="geometry" />
        </mxCell>
        <mxCell id="wPWIn_zEP_00SwvqZCT9-269" value="" style="endArrow=none;html=1;rounded=0;exitX=1;exitY=0.5;exitDx=0;exitDy=0;edgeStyle=orthogonalEdgeStyle;entryX=0.461;entryY=0.992;entryDx=0;entryDy=0;entryPerimeter=0;" parent="1" source="wPWIn_zEP_00SwvqZCT9-11" target="wPWIn_zEP_00SwvqZCT9-46" edge="1">
          <mxGeometry width="50" height="50" relative="1" as="geometry">
            <mxPoint x="-950" y="4770" as="sourcePoint" />
            <mxPoint x="-680" y="4460" as="targetPoint" />
            <Array as="points">
              <mxPoint x="-680" y="4629" />
            </Array>
          </mxGeometry>
        </mxCell>
        <mxCell id="wPWIn_zEP_00SwvqZCT9-270" value="" style="endArrow=none;html=1;rounded=0;exitX=1;exitY=0.5;exitDx=0;exitDy=0;edgeStyle=orthogonalEdgeStyle;entryX=0.517;entryY=1.085;entryDx=0;entryDy=0;entryPerimeter=0;" parent="1" target="wPWIn_zEP_00SwvqZCT9-42" edge="1">
          <mxGeometry width="50" height="50" relative="1" as="geometry">
            <mxPoint x="-1060" y="4651" as="sourcePoint" />
            <mxPoint x="-680" y="4476" as="targetPoint" />
            <Array as="points">
              <mxPoint x="-417" y="4651" />
            </Array>
          </mxGeometry>
        </mxCell>
        <mxCell id="wPWIn_zEP_00SwvqZCT9-271" value="" style="endArrow=none;html=1;rounded=0;exitX=1.036;exitY=1.192;exitDx=0;exitDy=0;exitPerimeter=0;entryX=-0.011;entryY=-0.077;entryDx=0;entryDy=0;entryPerimeter=0;" parent="1" source="wPWIn_zEP_00SwvqZCT9-15" target="wPWIn_zEP_00SwvqZCT9-101" edge="1">
          <mxGeometry width="50" height="50" relative="1" as="geometry">
            <mxPoint x="-710" y="5000" as="sourcePoint" />
            <mxPoint x="-660" y="4950" as="targetPoint" />
          </mxGeometry>
        </mxCell>
        <mxCell id="wPWIn_zEP_00SwvqZCT9-273" value="" style="endArrow=none;html=1;rounded=0;exitX=0.001;exitY=-0.077;exitDx=0;exitDy=0;entryX=0.68;entryY=1.14;entryDx=0;entryDy=0;entryPerimeter=0;edgeStyle=orthogonalEdgeStyle;exitPerimeter=0;" parent="1" source="wPWIn_zEP_00SwvqZCT9-259" target="wPWIn_zEP_00SwvqZCT9-104" edge="1">
          <mxGeometry width="50" height="50" relative="1" as="geometry">
            <mxPoint x="-840" y="4970" as="sourcePoint" />
            <mxPoint x="-242" y="4930" as="targetPoint" />
            <Array as="points">
              <mxPoint x="190" y="5390" />
              <mxPoint x="-80" y="5390" />
              <mxPoint x="-80" y="4932" />
            </Array>
          </mxGeometry>
        </mxCell>
        <mxCell id="wPWIn_zEP_00SwvqZCT9-276" value="" style="endArrow=none;html=1;rounded=0;exitX=-0.008;exitY=0.033;exitDx=0;exitDy=0;entryX=1;entryY=0.5;entryDx=0;entryDy=0;exitPerimeter=0;" parent="1" source="wPWIn_zEP_00SwvqZCT9-116" target="wPWIn_zEP_00SwvqZCT9-95" edge="1">
          <mxGeometry width="50" height="50" relative="1" as="geometry">
            <mxPoint x="70" y="4900" as="sourcePoint" />
            <mxPoint x="70" y="4680" as="targetPoint" />
          </mxGeometry>
        </mxCell>
        <mxCell id="wPWIn_zEP_00SwvqZCT9-277" value="" style="endArrow=none;html=1;rounded=0;" parent="1" edge="1">
          <mxGeometry width="50" height="50" relative="1" as="geometry">
            <mxPoint x="280" y="4880" as="sourcePoint" />
            <mxPoint x="280" y="4758" as="targetPoint" />
          </mxGeometry>
        </mxCell>
        <mxCell id="wPWIn_zEP_00SwvqZCT9-278" value="" style="endArrow=none;html=1;rounded=0;exitX=1;exitY=0.5;exitDx=0;exitDy=0;entryX=0.002;entryY=0.808;entryDx=0;entryDy=0;entryPerimeter=0;" parent="1" source="wPWIn_zEP_00SwvqZCT9-181" target="wPWIn_zEP_00SwvqZCT9-11" edge="1">
          <mxGeometry width="50" height="50" relative="1" as="geometry">
            <mxPoint x="-1280" y="4600" as="sourcePoint" />
            <mxPoint x="-1230" y="4550" as="targetPoint" />
            <Array as="points">
              <mxPoint x="-1640" y="4637" />
            </Array>
          </mxGeometry>
        </mxCell>
        <mxCell id="wPWIn_zEP_00SwvqZCT9-279" value="" style="endArrow=none;html=1;rounded=0;exitX=1;exitY=0.5;exitDx=0;exitDy=0;entryX=0;entryY=0.5;entryDx=0;entryDy=0;" parent="1" source="wPWIn_zEP_00SwvqZCT9-185" target="SRBA08kxsxedpuSREIqK-9" edge="1">
          <mxGeometry width="50" height="50" relative="1" as="geometry">
            <mxPoint x="-1830" y="4840" as="sourcePoint" />
            <mxPoint x="-1780" y="4790" as="targetPoint" />
          </mxGeometry>
        </mxCell>
        <mxCell id="wPWIn_zEP_00SwvqZCT9-124" value="Tag" style="swimlane;fontStyle=1;align=center;verticalAlign=top;childLayout=stackLayout;horizontal=1;startSize=26;horizontalStack=0;resizeParent=1;resizeParentMax=0;resizeLast=0;collapsible=1;marginBottom=0;whiteSpace=wrap;html=1;fillColor=#fa6800;fontColor=#000000;strokeColor=#C73500;shadow=1;swimlaneFillColor=default;rounded=0;" parent="1" vertex="1">
          <mxGeometry x="210" y="4360" width="160" height="138" as="geometry" />
        </mxCell>
        <mxCell id="wPWIn_zEP_00SwvqZCT9-125" value="- id: Long/String" style="text;strokeColor=none;fillColor=none;align=left;verticalAlign=top;spacingLeft=4;spacingRight=4;overflow=hidden;rotatable=0;points=[[0,0.5],[1,0.5]];portConstraint=eastwest;whiteSpace=wrap;html=1;" parent="wPWIn_zEP_00SwvqZCT9-124" vertex="1">
          <mxGeometry y="26" width="160" height="26" as="geometry" />
        </mxCell>
        <mxCell id="wPWIn_zEP_00SwvqZCT9-126" value="- name: String" style="text;strokeColor=none;fillColor=#eeeeee;align=left;verticalAlign=top;spacingLeft=4;spacingRight=4;overflow=hidden;rotatable=0;points=[[0,0.5],[1,0.5]];portConstraint=eastwest;whiteSpace=wrap;html=1;fontColor=#000000;" parent="wPWIn_zEP_00SwvqZCT9-124" vertex="1">
          <mxGeometry y="52" width="160" height="26" as="geometry" />
        </mxCell>
        <mxCell id="wPWIn_zEP_00SwvqZCT9-127" value="- baseEntity: BaseEntity&lt;div&gt;&lt;br&gt;&lt;/div&gt;&lt;div&gt;&lt;br&gt;&lt;/div&gt;&lt;div&gt;&lt;br&gt;&lt;/div&gt;" style="text;align=left;verticalAlign=top;spacingLeft=4;spacingRight=4;overflow=hidden;rotatable=0;points=[[0,0.5],[1,0.5]];portConstraint=eastwest;whiteSpace=wrap;html=1;" parent="wPWIn_zEP_00SwvqZCT9-124" vertex="1">
          <mxGeometry y="78" width="160" height="26" as="geometry" />
        </mxCell>
        <mxCell id="wPWIn_zEP_00SwvqZCT9-128" value="" style="line;strokeWidth=1;fillColor=none;align=left;verticalAlign=middle;spacingTop=-1;spacingLeft=3;spacingRight=3;rotatable=0;labelPosition=right;points=[];portConstraint=eastwest;strokeColor=inherit;" parent="wPWIn_zEP_00SwvqZCT9-124" vertex="1">
          <mxGeometry y="104" width="160" height="8" as="geometry" />
        </mxCell>
        <mxCell id="wPWIn_zEP_00SwvqZCT9-129" value="+ method(type): type" style="text;strokeColor=none;fillColor=none;align=left;verticalAlign=top;spacingLeft=4;spacingRight=4;overflow=hidden;rotatable=0;points=[[0,0.5],[1,0.5]];portConstraint=eastwest;whiteSpace=wrap;html=1;" parent="wPWIn_zEP_00SwvqZCT9-124" vertex="1">
          <mxGeometry y="112" width="160" height="26" as="geometry" />
        </mxCell>
        <mxCell id="wPWIn_zEP_00SwvqZCT9-283" value="" style="endArrow=none;html=1;rounded=0;exitX=0;exitY=0.5;exitDx=0;exitDy=0;entryX=0.886;entryY=-0.014;entryDx=0;entryDy=0;entryPerimeter=0;edgeStyle=orthogonalEdgeStyle;" parent="1" source="wPWIn_zEP_00SwvqZCT9-126" target="wPWIn_zEP_00SwvqZCT9-94" edge="1">
          <mxGeometry width="50" height="50" relative="1" as="geometry">
            <mxPoint x="219" y="4649" as="sourcePoint" />
            <mxPoint x="20" y="4649" as="targetPoint" />
          </mxGeometry>
        </mxCell>
        <mxCell id="wPWIn_zEP_00SwvqZCT9-285" value="" style="endArrow=none;html=1;rounded=0;exitX=0.682;exitY=1.269;exitDx=0;exitDy=0;exitPerimeter=0;entryX=0.013;entryY=-0.231;entryDx=0;entryDy=0;entryPerimeter=0;edgeStyle=orthogonalEdgeStyle;" parent="1" source="wPWIn_zEP_00SwvqZCT9-24" target="wPWIn_zEP_00SwvqZCT9-57" edge="1">
          <mxGeometry width="50" height="50" relative="1" as="geometry">
            <mxPoint x="-1010" y="4920" as="sourcePoint" />
            <mxPoint x="-960" y="4870" as="targetPoint" />
            <Array as="points">
              <mxPoint x="-1122" y="5124" />
            </Array>
          </mxGeometry>
        </mxCell>
        <mxCell id="wPWIn_zEP_00SwvqZCT9-286" value="" style="endArrow=none;html=1;rounded=0;exitX=1;exitY=0.5;exitDx=0;exitDy=0;entryX=0.3;entryY=1.125;entryDx=0;entryDy=0;entryPerimeter=0;edgeStyle=orthogonalEdgeStyle;" parent="1" source="wPWIn_zEP_00SwvqZCT9-56" target="wPWIn_zEP_00SwvqZCT9-104" edge="1">
          <mxGeometry width="50" height="50" relative="1" as="geometry">
            <mxPoint x="-40.5" y="4937.5" as="sourcePoint" />
            <mxPoint x="-239.5" y="4937.5" as="targetPoint" />
            <Array as="points">
              <mxPoint x="-200" y="5117" />
            </Array>
          </mxGeometry>
        </mxCell>
        <mxCell id="wPWIn_zEP_00SwvqZCT9-287" value="" style="endArrow=none;html=1;rounded=0;exitX=0.282;exitY=1.433;exitDx=0;exitDy=0;exitPerimeter=0;entryX=0.013;entryY=-0.231;entryDx=0;entryDy=0;entryPerimeter=0;edgeStyle=orthogonalEdgeStyle;" parent="1" source="wPWIn_zEP_00SwvqZCT9-24" edge="1">
          <mxGeometry width="50" height="50" relative="1" as="geometry">
            <mxPoint x="-1124" y="5324" as="sourcePoint" />
            <mxPoint x="-760" y="5476" as="targetPoint" />
            <Array as="points">
              <mxPoint x="-1200" y="5476" />
            </Array>
          </mxGeometry>
        </mxCell>
        <mxCell id="wPWIn_zEP_00SwvqZCT9-288" value="" style="endArrow=none;html=1;rounded=0;exitX=1;exitY=0.5;exitDx=0;exitDy=0;edgeStyle=orthogonalEdgeStyle;" parent="1" edge="1">
          <mxGeometry width="50" height="50" relative="1" as="geometry">
            <mxPoint x="-600" y="5476" as="sourcePoint" />
            <mxPoint x="-150" y="4930" as="targetPoint" />
            <Array as="points">
              <mxPoint x="-160" y="5476" />
              <mxPoint x="-160" y="5290" />
              <mxPoint x="-162" y="5290" />
            </Array>
          </mxGeometry>
        </mxCell>
        <mxCell id="wPWIn_zEP_00SwvqZCT9-289" value="" style="endArrow=none;html=1;rounded=0;exitX=1;exitY=0.5;exitDx=0;exitDy=0;entryX=0;entryY=0.5;entryDx=0;entryDy=0;edgeStyle=orthogonalEdgeStyle;" parent="1" source="wPWIn_zEP_00SwvqZCT9-137" target="wPWIn_zEP_00SwvqZCT9-217" edge="1">
          <mxGeometry width="50" height="50" relative="1" as="geometry">
            <mxPoint x="-1500" y="4780" as="sourcePoint" />
            <mxPoint x="-1450" y="4730" as="targetPoint" />
          </mxGeometry>
        </mxCell>
        <mxCell id="wPWIn_zEP_00SwvqZCT9-290" value="" style="endArrow=none;html=1;rounded=0;exitX=1;exitY=0.5;exitDx=0;exitDy=0;entryX=0;entryY=0.5;entryDx=0;entryDy=0;edgeStyle=orthogonalEdgeStyle;" parent="1" source="wPWIn_zEP_00SwvqZCT9-235" target="wPWIn_zEP_00SwvqZCT9-142" edge="1">
          <mxGeometry width="50" height="50" relative="1" as="geometry">
            <mxPoint x="-1740" y="4830" as="sourcePoint" />
            <mxPoint x="-1690" y="4780" as="targetPoint" />
          </mxGeometry>
        </mxCell>
        <mxCell id="wPWIn_zEP_00SwvqZCT9-291" value="" style="endArrow=none;html=1;rounded=0;entryX=0.092;entryY=1.115;entryDx=0;entryDy=0;entryPerimeter=0;exitX=0.9;exitY=-0.012;exitDx=0;exitDy=0;exitPerimeter=0;edgeStyle=orthogonalEdgeStyle;" parent="1" source="wPWIn_zEP_00SwvqZCT9-76" target="wPWIn_zEP_00SwvqZCT9-24" edge="1">
          <mxGeometry width="50" height="50" relative="1" as="geometry">
            <mxPoint x="-1670" y="5240" as="sourcePoint" />
            <mxPoint x="-1620" y="5190" as="targetPoint" />
            <Array as="points">
              <mxPoint x="-1321" y="5160" />
              <mxPoint x="-1237" y="5160" />
            </Array>
          </mxGeometry>
        </mxCell>
        <mxCell id="wPWIn_zEP_00SwvqZCT9-292" value="" style="endArrow=none;html=1;rounded=0;entryX=0;entryY=0.5;entryDx=0;entryDy=0;edgeStyle=orthogonalEdgeStyle;" parent="1" target="wPWIn_zEP_00SwvqZCT9-218" edge="1">
          <mxGeometry width="50" height="50" relative="1" as="geometry">
            <mxPoint x="-1560" y="5350" as="sourcePoint" />
            <mxPoint x="-1700" y="5190" as="targetPoint" />
            <Array as="points">
              <mxPoint x="-1560" y="5350" />
              <mxPoint x="-1560" y="4918" />
            </Array>
          </mxGeometry>
        </mxCell>
        <mxCell id="SRBA08kxsxedpuSREIqK-7" value="" style="endArrow=none;html=1;rounded=0;exitX=1;exitY=0.5;exitDx=0;exitDy=0;entryX=0;entryY=0.5;entryDx=0;entryDy=0;" parent="1" edge="1">
          <mxGeometry width="50" height="50" relative="1" as="geometry">
            <mxPoint x="-2128" y="4812.62" as="sourcePoint" />
            <mxPoint x="-2026" y="4812.62" as="targetPoint" />
          </mxGeometry>
        </mxCell>
        <mxCell id="SRBA08kxsxedpuSREIqK-8" value="" style="endArrow=none;html=1;rounded=0;entryX=0.002;entryY=0.808;entryDx=0;entryDy=0;entryPerimeter=0;" parent="1" edge="1">
          <mxGeometry width="50" height="50" relative="1" as="geometry">
            <mxPoint x="-1830" y="4810" as="sourcePoint" />
            <mxPoint x="-1255" y="4810" as="targetPoint" />
            <Array as="points">
              <mxPoint x="-1640" y="4810" />
            </Array>
          </mxGeometry>
        </mxCell>
        <mxCell id="bh9HdsnnKBcZ5_Enlee--1" value="User_app_setting" style="swimlane;fontStyle=1;align=center;verticalAlign=top;childLayout=stackLayout;horizontal=1;startSize=26;horizontalStack=0;resizeParent=1;resizeParentMax=0;resizeLast=0;collapsible=1;marginBottom=0;whiteSpace=wrap;html=1;fillColor=#e1d5e7;strokeColor=#9673a6;rounded=0;shadow=1;swimlaneFillColor=default;" vertex="1" parent="1">
          <mxGeometry x="-1690" y="5510" width="160" height="86" as="geometry" />
        </mxCell>
        <mxCell id="bh9HdsnnKBcZ5_Enlee--2" value="+ id: type" style="text;strokeColor=none;fillColor=none;align=left;verticalAlign=top;spacingLeft=4;spacingRight=4;overflow=hidden;rotatable=0;points=[[0,0.5],[1,0.5]];portConstraint=eastwest;whiteSpace=wrap;html=1;" vertex="1" parent="bh9HdsnnKBcZ5_Enlee--1">
          <mxGeometry y="26" width="160" height="26" as="geometry" />
        </mxCell>
        <mxCell id="bh9HdsnnKBcZ5_Enlee--3" value="" style="line;strokeWidth=1;fillColor=none;align=left;verticalAlign=middle;spacingTop=-1;spacingLeft=3;spacingRight=3;rotatable=0;labelPosition=right;points=[];portConstraint=eastwest;strokeColor=inherit;" vertex="1" parent="bh9HdsnnKBcZ5_Enlee--1">
          <mxGeometry y="52" width="160" height="8" as="geometry" />
        </mxCell>
        <mxCell id="bh9HdsnnKBcZ5_Enlee--4" value="+ method(type): type" style="text;strokeColor=none;fillColor=none;align=left;verticalAlign=top;spacingLeft=4;spacingRight=4;overflow=hidden;rotatable=0;points=[[0,0.5],[1,0.5]];portConstraint=eastwest;whiteSpace=wrap;html=1;" vertex="1" parent="bh9HdsnnKBcZ5_Enlee--1">
          <mxGeometry y="60" width="160" height="26" as="geometry" />
        </mxCell>
        <mxCell id="bh9HdsnnKBcZ5_Enlee--6" value="Hemen şart değil" style="text;html=1;align=center;verticalAlign=middle;whiteSpace=wrap;rounded=0;" vertex="1" parent="1">
          <mxGeometry x="-1680" y="5308" width="60" height="30" as="geometry" />
        </mxCell>
        <mxCell id="bh9HdsnnKBcZ5_Enlee--7" value="user_matching_preference" style="swimlane;fontStyle=1;align=center;verticalAlign=top;childLayout=stackLayout;horizontal=1;startSize=26;horizontalStack=0;resizeParent=1;resizeParentMax=0;resizeLast=0;collapsible=1;marginBottom=0;whiteSpace=wrap;html=1;fillColor=#fad9d5;strokeColor=#ae4132;rounded=0;shadow=1;swimlaneFillColor=default;" vertex="1" parent="1">
          <mxGeometry x="-1890" y="5308" width="160" height="86" as="geometry" />
        </mxCell>
        <mxCell id="bh9HdsnnKBcZ5_Enlee--8" value="+ id: type" style="text;strokeColor=none;fillColor=none;align=left;verticalAlign=top;spacingLeft=4;spacingRight=4;overflow=hidden;rotatable=0;points=[[0,0.5],[1,0.5]];portConstraint=eastwest;whiteSpace=wrap;html=1;" vertex="1" parent="bh9HdsnnKBcZ5_Enlee--7">
          <mxGeometry y="26" width="160" height="26" as="geometry" />
        </mxCell>
        <mxCell id="bh9HdsnnKBcZ5_Enlee--9" value="" style="line;strokeWidth=1;fillColor=none;align=left;verticalAlign=middle;spacingTop=-1;spacingLeft=3;spacingRight=3;rotatable=0;labelPosition=right;points=[];portConstraint=eastwest;strokeColor=inherit;" vertex="1" parent="bh9HdsnnKBcZ5_Enlee--7">
          <mxGeometry y="52" width="160" height="8" as="geometry" />
        </mxCell>
        <mxCell id="bh9HdsnnKBcZ5_Enlee--10" value="+ method(type): type" style="text;strokeColor=none;fillColor=none;align=left;verticalAlign=top;spacingLeft=4;spacingRight=4;overflow=hidden;rotatable=0;points=[[0,0.5],[1,0.5]];portConstraint=eastwest;whiteSpace=wrap;html=1;" vertex="1" parent="bh9HdsnnKBcZ5_Enlee--7">
          <mxGeometry y="60" width="160" height="26" as="geometry" />
        </mxCell>
        <mxCell id="bh9HdsnnKBcZ5_Enlee--12" value="Hemen şart değil" style="text;html=1;align=center;verticalAlign=middle;whiteSpace=wrap;rounded=0;" vertex="1" parent="1">
          <mxGeometry x="-1830" y="5078" width="60" height="30" as="geometry" />
        </mxCell>
        <mxCell id="bh9HdsnnKBcZ5_Enlee--13" value="agreement" style="swimlane;fontStyle=1;align=center;verticalAlign=top;childLayout=stackLayout;horizontal=1;startSize=26;horizontalStack=0;resizeParent=1;resizeParentMax=0;resizeLast=0;collapsible=1;marginBottom=0;whiteSpace=wrap;html=1;fillColor=#6d8764;fontColor=#ffffff;strokeColor=#3A5431;shadow=1;swimlaneFillColor=default;rounded=0;" vertex="1" parent="1">
          <mxGeometry x="-1650" y="3500" width="210" height="242" as="geometry" />
        </mxCell>
        <mxCell id="bh9HdsnnKBcZ5_Enlee--14" value="- id: Long/String" style="text;align=left;verticalAlign=top;spacingLeft=4;spacingRight=4;overflow=hidden;rotatable=0;points=[[0,0.5],[1,0.5]];portConstraint=eastwest;whiteSpace=wrap;html=1;" vertex="1" parent="bh9HdsnnKBcZ5_Enlee--13">
          <mxGeometry y="26" width="210" height="26" as="geometry" />
        </mxCell>
        <mxCell id="bh9HdsnnKBcZ5_Enlee--50" value="- offer_sender_id: Long/String" style="text;align=left;verticalAlign=top;spacingLeft=4;spacingRight=4;overflow=hidden;rotatable=0;points=[[0,0.5],[1,0.5]];portConstraint=eastwest;whiteSpace=wrap;html=1;" vertex="1" parent="bh9HdsnnKBcZ5_Enlee--13">
          <mxGeometry y="52" width="210" height="26" as="geometry" />
        </mxCell>
        <mxCell id="bh9HdsnnKBcZ5_Enlee--51" value="- offer_recipient_id: Long/String" style="text;align=left;verticalAlign=top;spacingLeft=4;spacingRight=4;overflow=hidden;rotatable=0;points=[[0,0.5],[1,0.5]];portConstraint=eastwest;whiteSpace=wrap;html=1;" vertex="1" parent="bh9HdsnnKBcZ5_Enlee--13">
          <mxGeometry y="78" width="210" height="26" as="geometry" />
        </mxCell>
        <mxCell id="bh9HdsnnKBcZ5_Enlee--32" value="- y_id: Long/String" style="text;align=left;verticalAlign=top;spacingLeft=4;spacingRight=4;overflow=hidden;rotatable=0;points=[[0,0.5],[1,0.5]];portConstraint=eastwest;whiteSpace=wrap;html=1;" vertex="1" parent="bh9HdsnnKBcZ5_Enlee--13">
          <mxGeometry y="104" width="210" height="26" as="geometry" />
        </mxCell>
        <mxCell id="bh9HdsnnKBcZ5_Enlee--35" value="- offer_id: Long/String" style="text;align=left;verticalAlign=top;spacingLeft=4;spacingRight=4;overflow=hidden;rotatable=0;points=[[0,0.5],[1,0.5]];portConstraint=eastwest;whiteSpace=wrap;html=1;" vertex="1" parent="bh9HdsnnKBcZ5_Enlee--13">
          <mxGeometry y="130" width="210" height="26" as="geometry" />
        </mxCell>
        <mxCell id="bh9HdsnnKBcZ5_Enlee--33" value="- agreement_date_time: DateTime" style="text;align=left;verticalAlign=top;spacingLeft=4;spacingRight=4;overflow=hidden;rotatable=0;points=[[0,0.5],[1,0.5]];portConstraint=eastwest;whiteSpace=wrap;html=1;" vertex="1" parent="bh9HdsnnKBcZ5_Enlee--13">
          <mxGeometry y="156" width="210" height="26" as="geometry" />
        </mxCell>
        <mxCell id="bh9HdsnnKBcZ5_Enlee--34" value="- status: String" style="text;align=left;verticalAlign=top;spacingLeft=4;spacingRight=4;overflow=hidden;rotatable=0;points=[[0,0.5],[1,0.5]];portConstraint=eastwest;whiteSpace=wrap;html=1;" vertex="1" parent="bh9HdsnnKBcZ5_Enlee--13">
          <mxGeometry y="182" width="210" height="26" as="geometry" />
        </mxCell>
        <mxCell id="bh9HdsnnKBcZ5_Enlee--18" value="" style="line;strokeWidth=1;fillColor=none;align=left;verticalAlign=middle;spacingTop=-1;spacingLeft=3;spacingRight=3;rotatable=0;labelPosition=right;points=[];portConstraint=eastwest;strokeColor=inherit;" vertex="1" parent="bh9HdsnnKBcZ5_Enlee--13">
          <mxGeometry y="208" width="210" height="8" as="geometry" />
        </mxCell>
        <mxCell id="bh9HdsnnKBcZ5_Enlee--19" value="+ method(type): type" style="text;strokeColor=none;fillColor=none;align=left;verticalAlign=top;spacingLeft=4;spacingRight=4;overflow=hidden;rotatable=0;points=[[0,0.5],[1,0.5]];portConstraint=eastwest;whiteSpace=wrap;html=1;" vertex="1" parent="bh9HdsnnKBcZ5_Enlee--13">
          <mxGeometry y="216" width="210" height="26" as="geometry" />
        </mxCell>
        <mxCell id="bh9HdsnnKBcZ5_Enlee--22" style="edgeStyle=orthogonalEdgeStyle;rounded=0;orthogonalLoop=1;jettySize=auto;html=1;entryX=0.704;entryY=-0.001;entryDx=0;entryDy=0;entryPerimeter=0;" edge="1" parent="1" source="lUCr0uX9j98xc51VkzF5-28" target="wPWIn_zEP_00SwvqZCT9-94">
          <mxGeometry relative="1" as="geometry">
            <mxPoint x="-80" y="4580" as="targetPoint" />
          </mxGeometry>
        </mxCell>
        <mxCell id="bh9HdsnnKBcZ5_Enlee--42" value="sendgrid" style="text;html=1;align=center;verticalAlign=middle;whiteSpace=wrap;rounded=0;" vertex="1" parent="1">
          <mxGeometry x="-2390" y="4809" width="60" height="30" as="geometry" />
        </mxCell>
        <mxCell id="bh9HdsnnKBcZ5_Enlee--43" value="aws" style="text;html=1;align=center;verticalAlign=middle;whiteSpace=wrap;rounded=0;" vertex="1" parent="1">
          <mxGeometry x="-2390" y="4779" width="60" height="30" as="geometry" />
        </mxCell>
        <mxCell id="bh9HdsnnKBcZ5_Enlee--49" value="s3" style="text;html=1;align=center;verticalAlign=middle;whiteSpace=wrap;rounded=0;" vertex="1" parent="1">
          <mxGeometry x="410" y="5340" width="60" height="30" as="geometry" />
        </mxCell>
      </root>
    </mxGraphModel>
  </diagram>
</mxfile>
